<svg width="1717" height="925" viewBox="0 0 1717 925" fill="none" xmlns="http://www.w3.org/2000/svg">
<path d="M35.0048 99.8748C38.2654 91.2427 44.0319 83.4511 51.7701 77.2223C59.5082 70.9934 68.9676 66.5287 79.2715 64.2421C89.5753 61.9555 100.39 61.9209 110.714 64.1415C121.038 66.3621 130.536 70.766 138.329 76.9452C146.122 83.1244 151.957 90.8788 155.294 99.4898C158.631 108.101 159.361 117.29 157.417 126.205C155.473 135.12 150.917 143.474 144.173 150.49C137.429 157.507 128.713 162.961 118.835 166.345L118.538 166.472C105.004 170.863 101.187 174.578 100.22 176.921L96.948 185.575C96.8361 185.906 96.6221 186.205 96.3283 186.441C95.6343 187.011 89.0656 191.823 68.8145 186.272C48.5634 180.72 46.5061 173.607 46.3821 172.741C46.2856 172.409 46.2856 172.061 46.3821 171.728L49.6541 163.074C50.5464 160.752 49.9267 155.791 41.7717 145.237C41.7165 145.189 41.6743 145.131 41.6478 145.068C36.7159 138.411 33.5642 130.912 32.4161 123.101C31.2681 115.291 32.1519 107.362 35.0048 99.8748ZM57.5859 119.274C59.1227 123.136 65.0221 127.421 73.995 127.717C74.6687 132.797 74.3758 137.936 73.1275 142.936C68.5667 162.609 64.5016 168.266 64.452 168.266C64.1512 168.733 64.0682 169.279 64.2198 169.795C64.3714 170.311 64.7464 170.76 65.2697 171.05C65.7929 171.341 66.4258 171.453 67.0418 171.363C67.6577 171.274 68.2112 170.989 68.5914 170.567C68.7649 170.314 73.1523 164.467 77.961 143.696C79.2984 138.342 79.6247 132.841 78.9277 127.4C80.481 127.197 82.0139 126.893 83.5134 126.493C86.7743 125.618 89.8899 124.391 92.7838 122.841C94.0451 125.539 95.7114 128.086 97.7412 130.419C98.6838 131.49 99.7196 132.499 100.84 133.437C96.5518 137.517 93.0468 142.148 90.4537 147.158C80.1423 166.409 79.6961 173.332 79.6713 173.628C79.6447 174.091 79.7978 174.548 80.1069 174.93C80.416 175.311 80.864 175.596 81.3816 175.739C81.595 175.769 81.8127 175.769 82.0261 175.739C82.6626 175.739 83.275 175.532 83.7364 175.158C84.1979 174.785 84.473 174.275 84.5048 173.733C84.5048 173.733 85.0749 167.063 94.841 148.825C97.2478 144.143 100.529 139.823 104.558 136.034C111.994 140.255 119.703 139.749 123.644 137.385C124.436 136.949 125.117 136.381 125.645 135.715C126.172 135.049 126.536 134.299 126.715 133.51C126.893 132.721 126.882 131.909 126.682 131.124C126.482 130.339 126.098 129.597 125.552 128.941C124.589 127.725 123.245 126.764 121.671 126.167C120.098 125.569 118.36 125.361 116.654 125.564C112.018 126.109 107.691 127.855 104.26 130.567C103.269 129.738 102.349 128.849 101.509 127.907C99.4736 125.594 97.8453 123.042 96.6754 120.329C101.782 116.762 105.177 112.455 105.202 108.783C105.131 107.494 104.6 106.255 103.679 105.23C102.758 104.206 101.492 103.446 100.05 103.051C98.608 102.656 97.0588 102.646 95.6096 103.021C94.1604 103.397 92.8805 104.14 91.941 105.152C89.4623 108.149 89.264 113.342 90.9495 118.767C88.146 120.394 85.071 121.654 81.8278 122.503C80.5072 122.859 79.1565 123.127 77.7875 123.305C76.8525 119.412 74.5435 115.855 71.1693 113.11C69.9212 112.099 68.3664 111.406 66.6803 111.108C64.9942 110.809 63.2438 110.918 61.6263 111.421C60.7425 111.696 59.9334 112.12 59.2476 112.669C58.5618 113.217 58.0136 113.878 57.636 114.612C57.2584 115.346 57.0593 116.137 57.0507 116.938C57.0421 117.74 57.2242 118.534 57.5859 119.274ZM63.6092 115.305C64.4064 115.076 65.2641 115.045 66.0809 115.217C66.8978 115.389 67.6399 115.757 68.2196 116.276C70.5886 118.209 72.2428 120.688 72.9788 123.411C66.8564 122.925 63.0639 120.076 62.2211 117.901C62.0681 117.658 61.9831 117.388 61.9726 117.112C61.9622 116.836 62.0266 116.562 62.1609 116.311C62.2952 116.06 62.4957 115.838 62.7469 115.664C62.9981 115.489 63.2932 115.367 63.6092 115.305ZM98.7575 106.988C100.369 107.432 100.493 108.107 100.493 108.719C99.8598 111.503 98.1065 114.011 95.5351 115.812C94.6184 113.066 94.8821 110.132 96.2787 107.537C96.5762 107.031 97.1463 106.545 98.7575 106.988ZM119.554 129.891C120.411 130.11 121.149 130.581 121.636 131.221C121.852 131.427 122.009 131.673 122.093 131.94C122.178 132.207 122.188 132.486 122.123 132.757C122.058 133.028 121.919 133.282 121.719 133.499C121.518 133.716 121.26 133.89 120.967 134.007C118.761 135.316 113.754 135.78 108.573 133.121C111.016 131.283 114.027 130.082 117.249 129.659C118.028 129.604 118.811 129.683 119.554 129.891Z" fill="#ACE4FF"/>
<path d="M58.4039 213.798C79.473 219.56 86.2894 214.579 87.0082 213.988C87.2943 213.746 87.507 213.449 87.6279 213.122L94.1718 195.771C94.3386 195.325 94.3268 194.845 94.1384 194.406C93.95 193.966 93.5955 193.593 93.1307 193.344C92.6623 193.105 92.1145 193.004 91.5722 193.058C91.0298 193.111 90.5234 193.315 90.1314 193.639C90.1314 193.639 84.5296 197.396 66.4597 192.436C48.3899 187.475 46.4316 181.649 46.4316 181.586C46.3067 181.135 46.0109 180.731 45.5898 180.437C45.1687 180.144 44.6457 179.976 44.1016 179.961C43.5642 179.935 43.0316 180.06 42.5844 180.315C42.1372 180.57 41.7997 180.942 41.6229 181.375L35.0791 198.726C34.9825 199.059 34.9825 199.407 35.0791 199.739C35.2031 200.563 37.3348 208.014 58.4039 213.798Z" fill="#ACE4FF"/>
<path d="M117.249 58.1432C117.87 58.3099 118.543 58.2616 119.123 58.0088C119.703 57.756 120.143 57.319 120.347 56.7923L126.643 40.0954C126.789 39.8244 126.866 39.5301 126.869 39.2319C126.872 38.9336 126.801 38.6383 126.66 38.3652C126.519 38.0922 126.312 37.8476 126.052 37.6478C125.792 37.4479 125.485 37.2972 125.152 37.2055C124.819 37.1139 124.466 37.0835 124.118 37.1163C123.77 37.1491 123.434 37.2443 123.132 37.3957C122.831 37.5471 122.57 37.7512 122.368 37.9946C122.165 38.238 122.026 38.5152 121.958 38.8078L115.662 55.5046C115.466 56.0337 115.523 56.6072 115.82 57.101C116.117 57.5947 116.63 57.9691 117.249 58.1432Z" fill="#ACE4FF"/>
<path d="M78.2087 57.0036C78.6202 57.1101 79.0572 57.1237 79.4767 57.0428C79.8962 56.962 80.2837 56.7896 80.6013 56.5426C80.9189 56.2956 81.1555 55.9824 81.2879 55.6339C81.4204 55.2855 81.444 54.9136 81.3566 54.555L77.0189 37.4149C76.8195 36.9287 76.4182 36.5212 75.8906 36.2694C75.3629 36.0176 74.7454 35.9388 74.1543 36.0478C73.5632 36.1568 73.0393 36.4461 72.6812 36.8612C72.3231 37.2763 72.1555 37.7885 72.2101 38.3015L76.5479 55.4416C76.6398 55.803 76.8416 56.1375 77.1331 56.4117C77.4246 56.6858 77.7954 56.8899 78.2087 57.0036Z" fill="#ACE4FF"/>
<path d="M43.73 72.666C44.1518 72.7887 44.6046 72.8123 45.0408 72.7343C45.477 72.6563 45.8805 72.4795 46.2087 72.2227C46.6868 71.8478 46.9728 71.328 47.0052 70.7753C47.0377 70.2226 46.814 69.6811 46.3822 69.2675L32.5509 56.2435C32.345 56.0054 32.0826 55.8067 31.7807 55.6605C31.4789 55.5142 31.1443 55.4236 30.7986 55.3945C30.453 55.3654 30.1041 55.3985 29.7744 55.4917C29.4448 55.5848 29.1418 55.7359 28.8851 55.9352C28.6285 56.1344 28.4239 56.3774 28.2845 56.6483C28.1452 56.9192 28.0743 57.2121 28.0763 57.5078C28.0784 57.8036 28.1535 58.0957 28.2966 58.3651C28.4398 58.6346 28.6478 58.8755 28.9072 59.0721L42.7385 72.0749C43.0066 72.3387 43.3472 72.5417 43.73 72.666Z" fill="#ACE4FF"/>
<path d="M3.42592 95.4422L23.0574 100.825C23.3769 100.952 23.7246 101.02 24.0774 101.024C24.4301 101.028 24.7797 100.967 25.1029 100.847C25.4261 100.726 25.7153 100.549 25.9513 100.325C26.1873 100.102 26.3646 99.8383 26.4714 99.552C26.5781 99.2657 26.6118 98.9632 26.5703 98.6649C26.5288 98.3665 26.413 98.0792 26.2306 97.822C26.0482 97.5649 25.8035 97.3438 25.5127 97.1737C25.222 97.0035 24.8919 96.8882 24.5446 96.8353L4.93797 91.4527C4.61972 91.3282 4.27409 91.2626 3.92388 91.2601C3.57368 91.2576 3.22687 91.3183 2.90624 91.4383C2.58561 91.5583 2.29843 91.7348 2.06371 91.9562C1.82899 92.1775 1.65198 92.4387 1.54441 92.7225C1.43684 93.0063 1.40116 93.3063 1.43965 93.6028C1.47813 93.8992 1.58994 94.1853 1.76772 94.4423C1.94549 94.6993 2.18516 94.9213 2.47098 95.0936C2.75681 95.2659 3.08225 95.3847 3.42592 95.4422Z" fill="#ACE4FF"/>
<path d="M1.56694 137.743C1.97908 137.85 2.41896 137.85 2.83111 137.743L23.0574 134.113C23.6926 133.991 24.2462 133.662 24.5987 133.196C24.9512 132.73 25.0743 132.165 24.9413 131.622C24.7988 131.081 24.4121 130.61 23.8649 130.309C23.3176 130.009 22.6536 129.904 22.0164 130.018L1.86445 133.712C1.35051 133.824 0.89226 134.073 0.557161 134.423C0.222061 134.773 0.0277324 135.206 0.00276137 135.657C-0.0222077 136.109 0.123485 136.555 0.418428 136.93C0.713371 137.306 1.142 137.591 1.6413 137.743H1.56694Z" fill="#ACE4FF"/>
<path d="M149.695 76.5922C150.117 76.715 150.57 76.7386 151.006 76.6606C151.442 76.5826 151.846 76.4058 152.174 76.149L167.443 64.3704C167.921 63.9955 168.207 63.4758 168.239 62.9231C168.272 62.3703 168.048 61.8289 167.616 61.4152C167.175 61.0018 166.56 60.7542 165.905 60.7265C165.249 60.6988 164.608 60.8933 164.121 61.2675L148.852 73.046C148.367 73.4216 148.076 73.9458 148.044 74.5036C148.011 75.0615 148.239 75.6076 148.679 76.0223C148.957 76.2812 149.306 76.4771 149.695 76.5922Z" fill="#ACE4FF"/>
<path d="M166.997 106.44C167.419 106.537 167.863 106.537 168.285 106.44L188.413 102.746C188.984 102.576 189.462 102.234 189.758 101.785C190.053 101.336 190.146 100.81 190.018 100.306C189.89 99.8029 189.55 99.3567 189.063 99.0518C188.575 98.7468 187.974 98.6042 187.372 98.6507L167.244 102.345C166.609 102.466 166.056 102.795 165.703 103.261C165.351 103.727 165.228 104.293 165.361 104.836C165.442 105.202 165.637 105.544 165.924 105.826C166.212 106.108 166.582 106.319 166.997 106.44Z" fill="#ACE4FF"/>
<path d="M164.493 139.601L184.174 144.962C184.769 145.062 185.387 144.972 185.91 144.71C186.432 144.447 186.824 144.031 187.01 143.539C187.197 143.048 187.165 142.515 186.921 142.042C186.677 141.569 186.237 141.189 185.686 140.973L166.079 135.59C165.469 135.461 164.824 135.534 164.275 135.795C163.726 136.055 163.313 136.484 163.121 136.993C162.929 137.503 162.971 138.056 163.24 138.54C163.508 139.024 163.983 139.403 164.567 139.601H164.493Z" fill="#ACE4FF"/>
<path d="M156.66 180.319C157.082 180.442 157.535 180.466 157.971 180.388C158.407 180.31 158.811 180.133 159.139 179.876C159.617 179.501 159.903 178.982 159.936 178.429C159.968 177.876 159.744 177.335 159.313 176.921L145.481 163.918C145.027 163.566 144.435 163.371 143.821 163.369C143.207 163.368 142.614 163.561 142.157 163.91C141.701 164.26 141.412 164.741 141.349 165.261C141.285 165.782 141.451 166.303 141.813 166.726L155.644 179.728C155.919 179.995 156.269 180.198 156.66 180.319Z" fill="#ACE4FF"/>
<path d="M1293.21 86.8836C1278.93 83.464 1277.29 78.4402 1277.17 77.9336C1277.08 77.7073 1277.08 77.4633 1277.17 77.237L1279.18 71.1155C1279.72 69.4691 1279.18 66.0284 1273.28 59.0204C1273.24 58.9612 1273.2 58.9047 1273.15 58.8515C1268.03 52.4836 1265.33 44.926 1265.42 37.2058C1265.52 29.4856 1268.4 21.9771 1273.68 15.7008C1278.96 9.42447 1286.38 4.68465 1294.93 2.12544C1303.49 -0.43376 1312.76 -0.688226 1321.49 1.39662C1330.22 3.48146 1337.98 7.80452 1343.72 13.7783C1349.47 19.7521 1352.91 27.0869 1353.59 34.7859C1354.26 42.485 1352.14 50.1749 1347.51 56.8107C1342.87 63.4465 1335.95 68.7063 1327.69 71.8754H1327.54C1317.99 75.3161 1315.39 77.9758 1314.85 79.6434L1312.81 85.7437C1312.74 85.9753 1312.59 86.1862 1312.39 86.3559C1311.92 86.8836 1307.51 90.3243 1293.21 86.8836ZM1280.64 77.5536C1281.18 78.4402 1283.81 81.5853 1294.15 84.0761C1304.48 86.5669 1308.6 85.0682 1309.67 84.5405L1311.52 78.9046C1312.66 75.5061 1317.25 72.572 1325.98 69.3213H1326.12C1333.77 66.4227 1340.17 61.589 1344.48 55.4781C1348.78 49.3672 1350.76 42.276 1350.16 35.1699C1349.56 28.0638 1346.4 21.2881 1341.12 15.765C1335.83 10.2419 1328.68 6.23991 1320.63 4.30372C1312.57 2.36754 1304.02 2.59126 1296.12 4.94443C1288.23 7.2976 1281.37 11.6659 1276.5 17.4546C1271.62 23.2434 1268.95 30.1714 1268.87 37.2955C1268.78 44.4196 1271.27 51.3937 1276 57.2684C1281.56 63.9386 1283.44 68.5403 1282.45 71.9177L1280.64 77.5536Z" fill="#77D2FE"/>
<path d="M1286.76 106.324C1271.89 102.736 1270.2 97.5855 1270.06 97.0156C1269.99 96.7793 1269.99 96.5342 1270.06 96.2979L1274.12 84.055C1274.22 83.7429 1274.44 83.4675 1274.74 83.2713C1275.04 83.075 1275.41 82.9688 1275.79 82.9688C1276.17 82.9688 1276.54 83.075 1276.85 83.2713C1277.15 83.4675 1277.37 83.7429 1277.47 84.055C1277.47 84.055 1279 88.0867 1291.74 91.1474C1304.49 94.2082 1308.3 91.4641 1308.33 91.4218C1308.61 91.2078 1308.96 91.0758 1309.34 91.0454C1309.71 91.015 1310.09 91.0878 1310.41 91.253C1310.73 91.4136 1310.98 91.6602 1311.12 91.9542C1311.26 92.2482 1311.28 92.5732 1311.18 92.8783L1307.11 105.121C1307.04 105.348 1306.9 105.557 1306.72 105.733C1306.25 106.261 1301.64 109.892 1286.76 106.324ZM1273.55 96.6356C1274.1 97.5433 1276.8 100.857 1287.7 103.496C1298.61 106.134 1302.9 104.509 1303.99 103.96L1306.96 95.2003C1303.97 95.8335 1298.91 96.0024 1290.9 94.0604C1282.9 92.1184 1278.71 89.8387 1276.53 87.8756L1273.55 96.6356Z" fill="#77D2FE"/>
<path d="M1290.65 76.5827L1290.23 76.4138C1290.02 76.3148 1289.84 76.1792 1289.7 76.0161C1289.55 75.8529 1289.45 75.6657 1289.4 75.4666C1289.34 75.2675 1289.34 75.061 1289.38 74.8606C1289.43 74.6601 1289.52 74.4702 1289.66 74.303C1289.66 74.303 1292.36 70.2291 1294.94 56.403C1295.67 52.9159 1295.73 49.3518 1295.12 45.8487C1288.87 45.8487 1284.61 43.0202 1283.42 40.3394C1283.16 39.8205 1283.03 39.263 1283.03 38.6996C1283.02 38.1363 1283.16 37.5785 1283.41 37.0592C1283.67 36.5398 1284.04 36.0695 1284.52 35.6758C1284.99 35.2821 1285.55 34.973 1286.17 34.7668C1287.28 34.3777 1288.5 34.2604 1289.69 34.4282C1290.87 34.596 1291.98 35.0422 1292.89 35.7167C1295.33 37.5625 1297.06 39.9997 1297.84 42.7036C1298.79 42.5436 1299.71 42.3249 1300.62 42.0492C1302.89 41.4076 1305.03 40.4752 1306.96 39.284C1305.63 35.5267 1305.6 31.9171 1307.24 29.7641C1307.88 29.0785 1308.74 28.5695 1309.72 28.3013C1310.7 28.0331 1311.75 28.0176 1312.74 28.257C1313.72 28.4963 1314.61 28.9796 1315.28 29.6461C1315.94 30.3125 1316.36 31.1321 1316.48 32.0016C1316.48 34.5557 1314.33 37.6375 1310.88 40.2339C1311.74 42.1126 1312.93 43.8703 1314.4 45.4477C1315 46.0832 1315.67 46.6762 1316.38 47.2208C1318.7 45.2704 1321.65 43.9671 1324.86 43.4846C1326.04 43.3056 1327.26 43.408 1328.37 43.7806C1329.49 44.1531 1330.46 44.7813 1331.18 45.5954C1331.58 46.0467 1331.87 46.562 1332.04 47.1107C1332.2 47.6594 1332.23 48.2304 1332.13 48.7896C1332.03 49.3489 1331.79 49.885 1331.44 50.3661C1331.09 50.8472 1330.63 51.2635 1330.09 51.5902C1328.05 52.6255 1325.69 53.1273 1323.32 53.0335C1320.94 52.9397 1318.65 52.2544 1316.73 51.0625C1314.04 53.7973 1311.88 56.8834 1310.34 60.2025C1304.04 73.1209 1303.84 77.7648 1303.84 77.807C1303.84 77.9983 1303.79 78.1871 1303.7 78.3628C1303.61 78.5385 1303.48 78.6975 1303.32 78.8308C1303.16 78.9641 1302.97 79.069 1302.76 79.1396C1302.55 79.2103 1302.33 79.2452 1302.11 79.2424C1301.88 79.2424 1301.66 79.2046 1301.46 79.1311C1301.25 79.0577 1301.06 78.9501 1300.91 78.8145C1300.75 78.679 1300.62 78.5183 1300.54 78.3417C1300.46 78.1651 1300.42 77.9762 1300.42 77.7859C1300.42 77.5748 1300.42 72.741 1307.16 59.0838C1308.8 55.5286 1311.1 52.2215 1313.98 49.2894C1313.16 48.6375 1312.41 47.9317 1311.72 47.1786C1310.23 45.5949 1308.98 43.8573 1308.01 42.007C1306.03 43.1456 1303.89 44.0675 1301.63 44.7511C1300.6 45.0676 1299.54 45.3146 1298.46 45.4899C1299.11 49.2672 1299.04 53.108 1298.26 56.8674C1295.54 71.4745 1292.64 75.6539 1292.54 75.865C1292.35 76.1383 1292.07 76.3548 1291.73 76.4837C1291.39 76.6126 1291.02 76.6472 1290.65 76.5827ZM1289.29 37.4053C1288.72 37.2166 1288.08 37.2166 1287.51 37.4053C1287.29 37.4567 1287.08 37.5502 1286.91 37.6788C1286.74 37.8075 1286.61 37.9677 1286.52 38.1471C1286.44 38.3266 1286.4 38.5205 1286.42 38.714C1286.43 38.9074 1286.5 39.0952 1286.61 39.2629C1287.4 40.3894 1288.52 41.3164 1289.87 41.9475C1291.22 42.5786 1292.74 42.8907 1294.27 42.8513C1293.67 40.9717 1292.45 39.2788 1290.75 37.9753C1290.31 37.7062 1289.82 37.5126 1289.29 37.4053ZM1319.36 48.8884C1320.64 49.6072 1322.13 50.0179 1323.67 50.0774C1325.2 50.1368 1326.73 49.8427 1328.08 49.2261C1328.28 49.138 1328.46 49.011 1328.59 48.8553C1328.73 48.6996 1328.82 48.5194 1328.86 48.3289C1328.9 48.1385 1328.88 47.943 1328.82 47.758C1328.75 47.573 1328.64 47.4035 1328.48 47.263C1328.12 46.8689 1327.63 46.5704 1327.08 46.4023C1326.53 46.2341 1325.93 46.2032 1325.36 46.3131C1323.1 46.6549 1321.02 47.5501 1319.36 48.8884ZM1311.8 30.8617C1310.68 30.5873 1310.29 30.8617 1310.01 31.2839C1309.12 33.1304 1309.02 35.1872 1309.74 37.0887C1311.52 35.7872 1312.69 33.9925 1313.06 32.0227C1313.04 31.6849 1312.91 31.2205 1311.77 30.9461L1311.8 30.8617Z" fill="#77D2FE"/>
<path d="M77.7877 684.884C63.5103 681.464 61.8743 676.44 61.7504 675.934C61.6633 675.707 61.6633 675.463 61.7504 675.237L63.7582 669.116C64.3035 667.469 63.7581 664.028 57.8588 657.02C57.8231 656.961 57.7816 656.905 57.7348 656.851C52.6085 650.484 49.9087 642.926 50.0024 635.206C50.096 627.486 52.9787 619.977 58.2584 613.701C63.5382 607.424 70.9591 602.685 79.5126 600.125C88.0662 597.566 97.3377 597.312 106.067 599.397C114.796 601.481 122.56 605.805 128.304 611.778C134.047 617.752 137.491 625.087 138.169 632.786C138.846 640.485 136.723 648.175 132.089 654.811C127.455 661.447 120.534 666.706 112.267 669.875H112.118C102.575 673.316 99.9722 675.976 99.4269 677.643L97.3943 683.744C97.3182 683.975 97.1731 684.186 96.973 684.356C96.502 684.884 92.0899 688.324 77.7877 684.884ZM65.2206 675.554C65.7659 676.44 68.3933 679.585 78.7295 682.076C89.0658 684.567 93.1805 683.068 94.2463 682.541L96.1054 676.905C97.2456 673.506 101.831 670.572 110.556 667.321H110.705C118.347 664.423 124.755 659.589 129.056 653.478C133.357 647.367 135.342 640.276 134.742 633.17C134.141 626.064 130.983 619.288 125.698 613.765C120.413 608.242 113.258 604.24 105.207 602.304C97.1558 600.368 88.5995 600.591 80.703 602.944C72.8064 605.298 65.9532 609.666 61.0763 615.455C56.1993 621.243 53.5357 628.171 53.4478 635.295C53.36 642.42 55.8523 649.394 60.5854 655.268C66.1377 661.939 68.0215 666.54 67.03 669.918L65.2206 675.554Z" fill="#77D2FE"/>
<path d="M71.3437 704.324C56.4714 700.736 54.7858 695.586 54.6371 695.016C54.5751 694.779 54.5751 694.534 54.6371 694.298L58.7022 682.055C58.8029 681.743 59.0211 681.468 59.3234 681.271C59.6257 681.075 59.9952 680.969 60.3753 680.969C60.7554 680.969 61.125 681.075 61.4273 681.271C61.7296 681.468 61.9478 681.743 62.0485 682.055C62.0485 682.055 63.5852 686.087 76.3258 689.147C89.0664 692.208 92.8837 689.464 92.9085 689.422C93.1887 689.208 93.5421 689.076 93.9169 689.045C94.2916 689.015 94.668 689.088 94.9907 689.253C95.3115 689.414 95.5608 689.66 95.6998 689.954C95.8388 690.248 95.8597 690.573 95.759 690.878L91.6939 703.121C91.6169 703.348 91.4814 703.557 91.2973 703.733C90.8264 704.261 86.216 707.892 71.3437 704.324ZM58.1321 694.636C58.6774 695.543 61.3792 698.857 72.2856 701.496C83.1919 704.134 87.4801 702.509 88.5707 701.96L91.5452 693.2C88.5459 693.834 83.4893 694.002 75.4831 692.06C67.4768 690.118 63.2878 687.839 61.1065 685.876L58.1321 694.636Z" fill="#77D2FE"/>
<path d="M75.2352 674.583L74.8138 674.414C74.604 674.315 74.4211 674.179 74.2769 674.016C74.1326 673.853 74.0303 673.666 73.9765 673.467C73.9227 673.268 73.9187 673.061 73.9648 672.861C74.0108 672.66 74.1058 672.47 74.2437 672.303C74.2437 672.303 76.9455 668.229 79.5234 654.403C80.2494 650.916 80.308 647.352 79.6969 643.849C73.4505 643.849 69.1871 641.02 67.9973 638.339C67.7397 637.821 67.6067 637.263 67.606 636.7C67.6054 636.136 67.7371 635.578 67.9935 635.059C68.25 634.54 68.6258 634.069 69.0989 633.676C69.5721 633.282 70.133 632.973 70.7487 632.767C71.8613 632.378 73.0794 632.26 74.266 632.428C75.4526 632.596 76.5608 633.042 77.466 633.717C79.9139 635.562 81.6432 638 82.4235 640.704C83.3664 640.544 84.2943 640.325 85.1996 640.049C87.4676 639.408 89.6074 638.475 91.5451 637.284C90.2066 633.527 90.1818 629.917 91.8178 627.764C92.4572 627.078 93.3206 626.569 94.2993 626.301C95.2779 626.033 96.328 626.018 97.3169 626.257C98.3058 626.496 99.1894 626.98 99.8561 627.646C100.523 628.312 100.943 629.132 101.063 630.002C101.063 632.556 98.9069 635.638 95.4615 638.234C96.3203 640.113 97.5069 641.87 98.9813 643.448C99.5851 644.083 100.248 644.676 100.964 645.221C103.278 643.27 106.235 641.967 109.441 641.485C110.621 641.306 111.836 641.408 112.952 641.781C114.067 642.153 115.04 642.781 115.762 643.595C116.163 644.047 116.454 644.562 116.616 645.111C116.779 645.659 116.81 646.23 116.708 646.79C116.607 647.349 116.374 647.885 116.024 648.366C115.674 648.847 115.214 649.264 114.672 649.59C112.628 650.625 110.273 651.127 107.898 651.034C105.524 650.94 103.233 650.254 101.311 649.063C98.6176 651.797 96.4583 654.883 94.9162 658.203C88.6202 671.121 88.4219 675.765 88.4219 675.807C88.4187 675.998 88.3713 676.187 88.2823 676.363C88.1934 676.538 88.0647 676.697 87.9035 676.831C87.7424 676.964 87.552 677.069 87.3433 677.14C87.1345 677.21 86.9115 677.245 86.6869 677.242C86.4634 677.242 86.2422 677.205 86.036 677.131C85.8299 677.058 85.643 676.95 85.4862 676.815C85.3293 676.679 85.2057 676.518 85.1225 676.342C85.0392 676.165 84.998 675.976 85.0013 675.786C85.0013 675.575 85.0013 670.741 91.7434 657.084C93.3836 653.529 95.6852 650.222 98.5599 647.289C97.7439 646.637 96.9897 645.932 96.3043 645.179C94.8143 643.595 93.565 641.857 92.5862 640.007C90.6064 641.146 88.4661 642.068 86.2159 642.751C85.1826 643.068 84.1218 643.315 83.0432 643.49C83.6881 647.267 83.6211 651.108 82.8448 654.867C80.1182 669.474 77.2181 673.654 77.119 673.865C76.9337 674.138 76.6519 674.355 76.3136 674.484C75.9753 674.613 75.598 674.647 75.2352 674.583ZM73.8719 635.405C73.2976 635.217 72.6615 635.217 72.0872 635.405C71.8676 635.457 71.6649 635.55 71.4944 635.679C71.324 635.807 71.1906 635.968 71.1043 636.147C71.0181 636.327 70.9815 636.521 70.9972 636.714C71.0129 636.907 71.0805 637.095 71.1949 637.263C71.9784 638.389 73.1022 639.316 74.4493 639.948C75.7963 640.579 77.3174 640.891 78.8541 640.851C78.2555 638.972 77.0335 637.279 75.3343 635.975C74.895 635.706 74.3982 635.513 73.8719 635.405ZM103.939 646.888C105.223 647.607 106.711 648.018 108.247 648.077C109.782 648.137 111.308 647.843 112.664 647.226C112.866 647.138 113.041 647.011 113.175 646.855C113.31 646.7 113.4 646.519 113.438 646.329C113.477 646.138 113.462 645.943 113.397 645.758C113.331 645.573 113.216 645.404 113.06 645.263C112.699 644.869 112.214 644.57 111.661 644.402C111.108 644.234 110.51 644.203 109.937 644.313C107.686 644.655 105.6 645.55 103.939 646.888ZM96.3787 628.862C95.2633 628.587 94.8667 628.862 94.594 629.284C93.6997 631.13 93.603 633.187 94.3213 635.089C96.0964 633.787 97.2731 631.992 97.6428 630.023C97.618 629.685 97.4941 629.221 96.3539 628.946L96.3787 628.862Z" fill="#77D2FE"/>
<path d="M1571.5 755.884C1585.78 752.464 1587.42 747.44 1587.54 746.934C1587.63 746.707 1587.63 746.463 1587.54 746.237L1585.53 740.116C1584.99 738.469 1585.53 735.028 1591.43 728.02C1591.47 727.961 1591.51 727.905 1591.56 727.851C1596.68 721.484 1599.38 713.926 1599.29 706.206C1599.2 698.486 1596.31 690.977 1591.03 684.701C1585.75 678.424 1578.33 673.685 1569.78 671.125C1561.23 668.566 1551.95 668.312 1543.22 670.397C1534.5 672.481 1526.73 676.805 1520.99 682.778C1515.24 688.752 1511.8 696.087 1511.12 703.786C1510.45 711.485 1512.57 719.175 1517.2 725.811C1521.84 732.447 1528.76 737.706 1537.03 740.875H1537.17C1546.72 744.316 1549.32 746.976 1549.87 748.643L1551.9 754.744C1551.97 754.975 1552.12 755.186 1552.32 755.356C1552.79 755.884 1557.2 759.324 1571.5 755.884ZM1584.07 746.554C1583.53 747.44 1580.9 750.585 1570.56 753.076C1560.23 755.567 1556.11 754.068 1555.05 753.541L1553.19 747.905C1552.05 744.506 1547.46 741.572 1538.74 738.321H1538.59C1530.94 735.423 1524.54 730.589 1520.24 724.478C1515.93 718.367 1513.95 711.276 1514.55 704.17C1515.15 697.064 1518.31 690.288 1523.59 684.765C1528.88 679.242 1536.03 675.24 1544.08 673.304C1552.14 671.368 1560.69 671.591 1568.59 673.944C1576.49 676.298 1583.34 680.666 1588.22 686.455C1593.09 692.243 1595.76 699.171 1595.84 706.295C1595.93 713.42 1593.44 720.394 1588.71 726.268C1583.15 732.939 1581.27 737.54 1582.26 740.918L1584.07 746.554Z" fill="#77D2FE"/>
<path d="M1577.95 775.324C1592.82 771.736 1594.51 766.586 1594.65 766.016C1594.72 765.779 1594.72 765.534 1594.65 765.298L1590.59 753.055C1590.49 752.743 1590.27 752.468 1589.97 752.271C1589.67 752.075 1589.3 751.969 1588.92 751.969C1588.54 751.969 1588.17 752.075 1587.86 752.271C1587.56 752.468 1587.34 752.743 1587.24 753.055C1587.24 753.055 1585.71 757.087 1572.97 760.147C1560.23 763.208 1556.41 760.464 1556.38 760.422C1556.1 760.208 1555.75 760.076 1555.38 760.045C1555 760.015 1554.62 760.088 1554.3 760.253C1553.98 760.414 1553.73 760.66 1553.59 760.954C1553.45 761.248 1553.43 761.573 1553.53 761.878L1557.6 774.121C1557.68 774.348 1557.81 774.557 1557.99 774.733C1558.47 775.261 1563.08 778.892 1577.95 775.324ZM1591.16 765.636C1590.61 766.543 1587.91 769.857 1577.01 772.496C1566.1 775.134 1561.81 773.509 1560.72 772.96L1557.75 764.2C1560.75 764.834 1565.8 765.002 1573.81 763.06C1581.82 761.118 1586 758.839 1588.19 756.876L1591.16 765.636Z" fill="#77D2FE"/>
<path d="M1574.06 745.583L1574.48 745.414C1574.69 745.315 1574.87 745.179 1575.02 745.016C1575.16 744.853 1575.26 744.666 1575.32 744.467C1575.37 744.268 1575.37 744.061 1575.33 743.861C1575.28 743.66 1575.19 743.47 1575.05 743.303C1575.05 743.303 1572.35 739.229 1569.77 725.403C1569.04 721.916 1568.98 718.352 1569.6 714.849C1575.84 714.849 1580.1 712.02 1581.29 709.339C1581.55 708.821 1581.69 708.263 1581.69 707.7C1581.69 707.136 1581.55 706.578 1581.3 706.059C1581.04 705.54 1580.67 705.069 1580.19 704.676C1579.72 704.282 1579.16 703.973 1578.54 703.767C1577.43 703.378 1576.21 703.26 1575.03 703.428C1573.84 703.596 1572.73 704.042 1571.83 704.717C1569.38 706.562 1567.65 709 1566.87 711.704C1565.93 711.544 1565 711.325 1564.09 711.049C1561.82 710.408 1559.68 709.475 1557.75 708.284C1559.09 704.527 1559.11 700.917 1557.47 698.764C1556.83 698.078 1555.97 697.569 1554.99 697.301C1554.01 697.033 1552.96 697.018 1551.98 697.257C1550.99 697.496 1550.1 697.98 1549.44 698.646C1548.77 699.312 1548.35 700.132 1548.23 701.002C1548.23 703.556 1550.39 706.638 1553.83 709.234C1552.97 711.113 1551.78 712.87 1550.31 714.448C1549.71 715.083 1549.04 715.676 1548.33 716.221C1546.01 714.27 1543.06 712.967 1539.85 712.485C1538.67 712.306 1537.46 712.408 1536.34 712.781C1535.22 713.153 1534.25 713.781 1533.53 714.595C1533.13 715.047 1532.84 715.562 1532.68 716.111C1532.51 716.659 1532.48 717.23 1532.58 717.79C1532.69 718.349 1532.92 718.885 1533.27 719.366C1533.62 719.847 1534.08 720.264 1534.62 720.59C1536.66 721.625 1539.02 722.127 1541.39 722.034C1543.77 721.94 1546.06 721.254 1547.98 720.063C1550.67 722.797 1552.83 725.883 1554.38 729.203C1560.67 742.121 1560.87 746.765 1560.87 746.807C1560.87 746.998 1560.92 747.187 1561.01 747.363C1561.1 747.538 1561.23 747.697 1561.39 747.831C1561.55 747.964 1561.74 748.069 1561.95 748.14C1562.16 748.21 1562.38 748.245 1562.61 748.242C1562.83 748.242 1563.05 748.205 1563.26 748.131C1563.46 748.058 1563.65 747.95 1563.81 747.815C1563.96 747.679 1564.09 747.518 1564.17 747.342C1564.25 747.165 1564.29 746.976 1564.29 746.786C1564.29 746.575 1564.29 741.741 1557.55 728.084C1555.91 724.529 1553.61 721.222 1550.73 718.289C1551.55 717.637 1552.3 716.932 1552.99 716.179C1554.48 714.595 1555.73 712.857 1556.71 711.007C1558.69 712.146 1560.83 713.068 1563.08 713.751C1564.11 714.068 1565.17 714.315 1566.25 714.49C1565.6 718.267 1565.67 722.108 1566.45 725.867C1569.17 740.474 1572.07 744.654 1572.17 744.865C1572.36 745.138 1572.64 745.355 1572.98 745.484C1573.32 745.613 1573.69 745.647 1574.06 745.583ZM1575.42 706.405C1575.99 706.217 1576.63 706.217 1577.2 706.405C1577.42 706.457 1577.63 706.55 1577.8 706.679C1577.97 706.807 1578.1 706.968 1578.19 707.147C1578.27 707.327 1578.31 707.521 1578.29 707.714C1578.28 707.907 1578.21 708.095 1578.1 708.263C1577.31 709.389 1576.19 710.316 1574.84 710.948C1573.5 711.579 1571.97 711.891 1570.44 711.851C1571.04 709.972 1572.26 708.279 1573.96 706.975C1574.4 706.706 1574.89 706.513 1575.42 706.405ZM1545.35 717.888C1544.07 718.607 1542.58 719.018 1541.05 719.077C1539.51 719.137 1537.98 718.843 1536.63 718.226C1536.43 718.138 1536.25 718.011 1536.12 717.855C1535.98 717.7 1535.89 717.519 1535.85 717.329C1535.82 717.138 1535.83 716.943 1535.89 716.758C1535.96 716.573 1536.08 716.404 1536.23 716.263C1536.59 715.869 1537.08 715.57 1537.63 715.402C1538.18 715.234 1538.78 715.203 1539.35 715.313C1541.61 715.655 1543.69 716.55 1545.35 717.888ZM1552.91 699.862C1554.03 699.587 1554.43 699.862 1554.7 700.284C1555.59 702.13 1555.69 704.187 1554.97 706.089C1553.2 704.787 1552.02 702.992 1551.65 701.023C1551.67 700.685 1551.8 700.221 1552.94 699.946L1552.91 699.862Z" fill="#77D2FE"/>
<path d="M1414 225.967C1410.73 217.335 1404.97 209.544 1397.23 203.315C1389.49 197.086 1380.03 192.621 1369.73 190.335C1359.42 188.048 1348.61 188.013 1338.29 190.234C1327.96 192.455 1318.46 196.859 1310.67 203.038C1302.88 209.217 1297.04 216.971 1293.71 225.582C1290.37 234.193 1289.64 243.382 1291.58 252.298C1293.53 261.213 1298.08 269.566 1304.83 276.583C1311.57 283.6 1320.29 289.053 1330.16 292.438L1330.46 292.565C1344 296.955 1347.81 300.67 1348.78 303.013L1352.05 311.668C1352.16 311.998 1352.38 312.297 1352.67 312.533C1353.37 313.103 1359.93 317.916 1380.19 312.364C1400.44 306.813 1402.49 299.699 1402.62 298.834C1402.71 298.501 1402.71 298.153 1402.62 297.821L1399.35 289.166C1398.45 286.844 1399.07 281.884 1407.23 271.329C1407.28 271.281 1407.33 271.224 1407.35 271.161C1412.28 264.504 1415.44 257.004 1416.58 249.194C1417.73 241.384 1416.85 233.454 1414 225.967ZM1391.41 245.366C1389.88 249.229 1383.98 253.514 1375.01 253.809C1374.33 258.889 1374.62 264.028 1375.87 269.029C1380.43 288.702 1384.5 294.359 1384.55 294.359C1384.85 294.825 1384.93 295.371 1384.78 295.887C1384.63 296.404 1384.25 296.852 1383.73 297.143C1383.21 297.434 1382.57 297.546 1381.96 297.456C1381.34 297.366 1380.79 297.082 1380.41 296.66C1380.24 296.406 1375.85 290.559 1371.04 269.789C1369.7 264.435 1369.38 258.934 1370.07 253.493C1368.52 253.289 1366.99 252.986 1365.49 252.585C1362.23 251.711 1359.11 250.484 1356.22 248.933C1354.95 251.631 1353.29 254.178 1351.26 256.511C1350.32 257.582 1349.28 258.591 1348.16 259.53C1352.45 263.61 1355.95 268.24 1358.55 273.25C1368.86 292.501 1369.3 299.425 1369.33 299.72C1369.36 300.183 1369.2 300.641 1368.89 301.022C1368.58 301.404 1368.14 301.688 1367.62 301.831C1367.41 301.861 1367.19 301.861 1366.97 301.831C1366.34 301.832 1365.73 301.624 1365.26 301.251C1364.8 300.877 1364.53 300.367 1364.5 299.826C1364.5 299.826 1363.93 293.156 1354.16 274.918C1351.75 270.235 1348.47 265.915 1344.44 262.126C1337.01 266.348 1329.3 265.841 1325.36 263.477C1324.56 263.041 1323.88 262.473 1323.36 261.807C1322.83 261.141 1322.46 260.391 1322.29 259.602C1322.11 258.813 1322.12 258.002 1322.32 257.217C1322.52 256.432 1322.9 255.689 1323.45 255.034C1324.41 253.818 1325.76 252.856 1327.33 252.259C1328.9 251.662 1330.64 251.453 1332.35 251.656C1336.98 252.201 1341.31 253.948 1344.74 256.659C1345.73 255.83 1346.65 254.941 1347.49 253.999C1349.53 251.687 1351.15 249.134 1352.32 246.421C1347.22 242.854 1343.82 238.548 1343.8 234.875C1343.87 233.587 1344.4 232.347 1345.32 231.323C1346.24 230.299 1347.51 229.538 1348.95 229.143C1350.39 228.749 1351.94 228.738 1353.39 229.114C1354.84 229.489 1356.12 230.233 1357.06 231.244C1359.54 234.242 1359.74 239.435 1358.05 244.859C1360.85 246.487 1363.93 247.746 1367.17 248.596C1368.49 248.951 1369.84 249.219 1371.21 249.398C1372.15 245.505 1374.46 241.947 1377.83 239.202C1379.08 238.192 1380.63 237.498 1382.32 237.2C1384.01 236.902 1385.76 237.01 1387.37 237.514C1388.26 237.789 1389.07 238.213 1389.75 238.761C1390.44 239.31 1390.99 239.971 1391.36 240.705C1391.74 241.439 1391.94 242.23 1391.95 243.031C1391.96 243.832 1391.78 244.626 1391.41 245.366ZM1385.39 241.398C1384.59 241.168 1383.74 241.138 1382.92 241.31C1382.1 241.482 1381.36 241.849 1380.78 242.369C1378.41 244.301 1376.76 246.781 1376.02 249.503C1382.14 249.018 1385.94 246.168 1386.78 243.994C1386.93 243.751 1387.02 243.481 1387.03 243.205C1387.04 242.929 1386.97 242.655 1386.84 242.403C1386.7 242.152 1386.5 241.931 1386.25 241.756C1386 241.582 1385.71 241.459 1385.39 241.398ZM1350.24 233.081C1348.63 233.524 1348.51 234.2 1348.51 234.812C1349.14 237.595 1350.89 240.104 1353.46 241.904C1354.38 239.159 1354.12 236.225 1352.72 233.63C1352.42 233.123 1351.85 232.638 1350.24 233.081ZM1329.45 255.984C1328.59 256.202 1327.85 256.674 1327.36 257.313C1327.15 257.52 1326.99 257.766 1326.91 258.032C1326.82 258.299 1326.81 258.579 1326.88 258.85C1326.94 259.12 1327.08 259.374 1327.28 259.591C1327.48 259.808 1327.74 259.982 1328.03 260.1C1330.24 261.408 1335.25 261.873 1340.43 259.213C1337.98 257.376 1334.97 256.175 1331.75 255.751C1330.97 255.697 1330.19 255.776 1329.45 255.984Z" fill="#ACE4FF"/>
<path d="M1390.6 339.89C1369.53 345.653 1362.71 340.671 1361.99 340.08C1361.71 339.839 1361.49 339.542 1361.37 339.215L1354.83 321.864C1354.66 321.418 1354.67 320.938 1354.86 320.498C1355.05 320.059 1355.4 319.685 1355.87 319.436C1356.34 319.197 1356.89 319.097 1357.43 319.15C1357.97 319.204 1358.48 319.408 1358.87 319.732C1358.87 319.732 1364.47 323.489 1382.54 318.528C1400.61 313.568 1402.57 307.742 1402.57 307.679C1402.69 307.227 1402.99 306.824 1403.41 306.53C1403.83 306.236 1404.35 306.069 1404.9 306.053C1405.44 306.028 1405.97 306.152 1406.42 306.407C1406.86 306.662 1407.2 307.035 1407.38 307.468L1413.92 324.819C1414.02 325.151 1414.02 325.499 1413.92 325.832C1413.8 326.655 1411.67 334.106 1390.6 339.89Z" fill="#ACE4FF"/>
<path d="M1331.75 184.236C1331.13 184.402 1330.46 184.354 1329.88 184.101C1329.3 183.849 1328.86 183.412 1328.65 182.885L1322.36 166.188C1322.21 165.917 1322.13 165.623 1322.13 165.324C1322.13 165.026 1322.2 164.731 1322.34 164.458C1322.48 164.185 1322.69 163.94 1322.95 163.74C1323.21 163.54 1323.51 163.39 1323.85 163.298C1324.18 163.206 1324.53 163.176 1324.88 163.209C1325.23 163.242 1325.57 163.337 1325.87 163.488C1326.17 163.64 1326.43 163.844 1326.63 164.087C1326.83 164.331 1326.97 164.608 1327.04 164.9L1333.34 181.597C1333.53 182.126 1333.48 182.7 1333.18 183.193C1332.88 183.687 1332.37 184.062 1331.75 184.236Z" fill="#ACE4FF"/>
<path d="M1370.79 183.096C1370.38 183.203 1369.94 183.216 1369.52 183.135C1369.1 183.055 1368.72 182.882 1368.4 182.635C1368.08 182.388 1367.84 182.075 1367.71 181.726C1367.58 181.378 1367.56 181.006 1367.64 180.648L1371.98 163.507C1372.18 163.021 1372.58 162.614 1373.11 162.362C1373.64 162.11 1374.25 162.031 1374.85 162.14C1375.44 162.249 1375.96 162.539 1376.32 162.954C1376.68 163.369 1376.84 163.881 1376.79 164.394L1372.45 181.534C1372.36 181.896 1372.16 182.23 1371.87 182.504C1371.58 182.778 1371.2 182.982 1370.79 183.096Z" fill="#ACE4FF"/>
<path d="M1405.27 198.758C1404.85 198.881 1404.4 198.905 1403.96 198.827C1403.52 198.749 1403.12 198.572 1402.79 198.315C1402.31 197.94 1402.03 197.421 1401.99 196.868C1401.96 196.315 1402.19 195.774 1402.62 195.36L1416.45 182.336C1416.66 182.098 1416.92 181.899 1417.22 181.753C1417.52 181.607 1417.86 181.516 1418.2 181.487C1418.55 181.458 1418.9 181.491 1419.23 181.584C1419.56 181.677 1419.86 181.828 1420.11 182.028C1420.37 182.227 1420.58 182.47 1420.72 182.741C1420.85 183.012 1420.93 183.305 1420.92 183.6C1420.92 183.896 1420.85 184.188 1420.7 184.458C1420.56 184.727 1420.35 184.968 1420.09 185.165L1406.26 198.167C1405.99 198.431 1405.65 198.634 1405.27 198.758Z" fill="#ACE4FF"/>
<path d="M1445.57 221.535L1425.94 226.917C1425.62 227.045 1425.28 227.113 1424.92 227.117C1424.57 227.12 1424.22 227.06 1423.9 226.939C1423.57 226.819 1423.28 226.641 1423.05 226.418C1422.81 226.195 1422.64 225.931 1422.53 225.645C1422.42 225.358 1422.39 225.056 1422.43 224.757C1422.47 224.459 1422.59 224.172 1422.77 223.915C1422.95 223.657 1423.2 223.436 1423.49 223.266C1423.78 223.096 1424.11 222.981 1424.46 222.928L1444.06 217.545C1444.38 217.421 1444.73 217.355 1445.08 217.353C1445.43 217.35 1445.77 217.411 1446.09 217.531C1446.41 217.651 1446.7 217.827 1446.94 218.049C1447.17 218.27 1447.35 218.531 1447.46 218.815C1447.56 219.099 1447.6 219.399 1447.56 219.695C1447.52 219.992 1447.41 220.278 1447.23 220.535C1447.05 220.792 1446.81 221.014 1446.53 221.186C1446.24 221.358 1445.92 221.477 1445.57 221.535Z" fill="#ACE4FF"/>
<path d="M1447.43 263.836C1447.02 263.942 1446.58 263.942 1446.17 263.836L1425.94 260.205C1425.31 260.084 1424.75 259.755 1424.4 259.289C1424.05 258.823 1423.93 258.257 1424.06 257.714C1424.2 257.174 1424.59 256.702 1425.14 256.402C1425.68 256.102 1426.35 255.997 1426.98 256.11L1447.14 259.804C1447.65 259.916 1448.11 260.166 1448.44 260.516C1448.78 260.866 1448.97 261.299 1449 261.75C1449.02 262.201 1448.88 262.647 1448.58 263.023C1448.29 263.398 1447.86 263.683 1447.36 263.836H1447.43Z" fill="#ACE4FF"/>
<path d="M1299.31 202.685C1298.88 202.808 1298.43 202.831 1297.99 202.753C1297.56 202.675 1297.15 202.498 1296.83 202.242L1281.56 190.463C1281.08 190.088 1280.79 189.568 1280.76 189.016C1280.73 188.463 1280.95 187.921 1281.38 187.508C1281.82 187.094 1282.44 186.847 1283.1 186.819C1283.75 186.791 1284.39 186.986 1284.88 187.36L1300.15 199.139C1300.63 199.514 1300.92 200.038 1300.96 200.596C1300.99 201.154 1300.76 201.7 1300.32 202.115C1300.04 202.374 1299.69 202.57 1299.31 202.685Z" fill="#ACE4FF"/>
<path d="M1282 232.532C1281.58 232.629 1281.14 232.629 1280.71 232.532L1260.59 228.838C1260.02 228.668 1259.54 228.327 1259.24 227.877C1258.95 227.428 1258.85 226.902 1258.98 226.399C1259.11 225.895 1259.45 225.449 1259.94 225.144C1260.42 224.839 1261.03 224.697 1261.63 224.743L1281.76 228.437C1282.39 228.559 1282.94 228.888 1283.3 229.354C1283.65 229.82 1283.77 230.385 1283.64 230.928C1283.56 231.295 1283.36 231.636 1283.08 231.918C1282.79 232.2 1282.42 232.412 1282 232.532Z" fill="#ACE4FF"/>
<path d="M1284.51 265.693L1264.83 271.055C1264.23 271.154 1263.61 271.065 1263.09 270.802C1262.57 270.54 1262.18 270.124 1261.99 269.632C1261.8 269.14 1261.84 268.607 1262.08 268.134C1262.32 267.661 1262.76 267.281 1263.31 267.065L1282.92 261.683C1283.53 261.554 1284.18 261.627 1284.73 261.887C1285.27 262.148 1285.69 262.576 1285.88 263.086C1286.07 263.596 1286.03 264.149 1285.76 264.633C1285.49 265.117 1285.02 265.496 1284.43 265.693H1284.51Z" fill="#ACE4FF"/>
<path d="M1292.34 306.412C1291.92 306.535 1291.47 306.558 1291.03 306.48C1290.59 306.402 1290.19 306.226 1289.86 305.969C1289.38 305.594 1289.1 305.074 1289.06 304.521C1289.03 303.969 1289.26 303.427 1289.69 303.014L1303.52 290.011C1303.97 289.659 1304.56 289.463 1305.18 289.462C1305.79 289.46 1306.39 289.653 1306.84 290.003C1307.3 290.352 1307.59 290.834 1307.65 291.354C1307.71 291.874 1307.55 292.396 1307.19 292.818L1293.36 305.821C1293.08 306.088 1292.73 306.291 1292.34 306.412Z" fill="#ACE4FF"/>
<path d="M517.331 795.232L502.459 802.494C502.27 802.571 502.111 802.693 502 802.844C501.888 802.995 501.829 803.17 501.829 803.349C501.829 803.527 501.888 803.702 502 803.853C502.111 804.004 502.27 804.126 502.459 804.203L514.183 811.38C514.383 811.492 514.551 811.641 514.675 811.816C514.798 811.99 514.873 812.187 514.895 812.39C514.916 812.593 514.883 812.797 514.799 812.988C514.714 813.179 514.58 813.351 514.406 813.491C512.774 814.983 511.366 816.642 510.217 818.431C509.934 818.838 509.546 819.184 509.082 819.444C508.618 819.704 508.091 819.87 507.54 819.929L487.859 821.006C487.361 821.037 486.895 821.225 486.551 821.534C486.207 821.842 486.011 822.248 486 822.673V832.024C486.011 832.449 486.207 832.856 486.551 833.164C486.895 833.472 487.361 833.661 487.859 833.692L507.54 834.747C508.092 834.812 508.62 834.983 509.083 835.246C509.547 835.509 509.934 835.858 510.217 836.267C511.373 838.052 512.779 839.711 514.406 841.207C514.58 841.347 514.714 841.519 514.799 841.71C514.883 841.9 514.916 842.105 514.895 842.308C514.873 842.511 514.798 842.707 514.675 842.882C514.551 843.057 514.383 843.206 514.183 843.318L502.459 850.494C502.27 850.572 502.111 850.694 502 850.845C501.888 850.996 501.829 851.171 501.829 851.349C501.829 851.528 501.888 851.703 502 851.854C502.111 852.005 502.27 852.126 502.459 852.204L517.331 859.465C517.834 859.684 518.387 859.808 518.951 859.83C519.515 859.852 520.078 859.771 520.603 859.592L535.475 853.682C536.572 853.311 537.781 853.252 538.921 853.513C542.728 854.519 546.612 855.302 550.546 855.856C551.067 855.951 551.547 856.17 551.929 856.488C552.31 856.805 552.578 857.208 552.702 857.65L554.586 866.094C554.7 866.519 554.976 866.9 555.37 867.179C555.764 867.457 556.255 867.618 556.767 867.634H578.506C579.015 867.602 579.5 867.437 579.895 867.161C580.29 866.886 580.575 866.513 580.712 866.094L582.571 857.65C582.702 857.208 582.976 856.805 583.361 856.488C583.747 856.171 584.228 855.952 584.752 855.856C588.685 855.299 592.569 854.517 596.377 853.513C597.509 853.25 598.71 853.309 599.798 853.682L614.67 859.592C615.195 859.771 615.758 859.852 616.322 859.83C616.887 859.808 617.439 859.684 617.942 859.465L632.814 852.204C633.011 852.133 633.18 852.014 633.298 851.862C633.416 851.71 633.479 851.532 633.479 851.349C633.479 851.167 633.416 850.989 633.298 850.837C633.18 850.685 633.011 850.566 632.814 850.494L621.115 843.318C620.906 843.212 620.73 843.065 620.601 842.89C620.471 842.715 620.393 842.516 620.371 842.311C620.349 842.105 620.385 841.897 620.476 841.705C620.566 841.513 620.709 841.343 620.892 841.207C622.511 839.706 623.917 838.048 625.081 836.267C625.358 835.859 625.741 835.51 626.201 835.246C626.66 834.983 627.184 834.812 627.733 834.747L647.439 833.692C647.934 833.66 648.398 833.471 648.737 833.163C649.077 832.854 649.268 832.448 649.273 832.024V822.673C649.268 822.25 649.077 821.844 648.737 821.535C648.398 821.226 647.934 821.038 647.439 821.006L627.733 819.929C627.184 819.873 626.659 819.708 626.198 819.448C625.738 819.187 625.355 818.839 625.081 818.431C623.998 816.634 622.666 814.955 621.115 813.428C620.932 813.292 620.789 813.121 620.699 812.929C620.608 812.737 620.572 812.53 620.594 812.324C620.616 812.118 620.695 811.919 620.824 811.744C620.953 811.569 621.129 811.423 621.338 811.317L633.038 804.14C633.235 804.069 633.403 803.95 633.521 803.798C633.639 803.646 633.702 803.467 633.702 803.285C633.702 803.103 633.639 802.925 633.521 802.773C633.403 802.621 633.235 802.502 633.038 802.43L618.165 795.169C617.663 794.947 617.111 794.82 616.546 794.798C615.981 794.776 615.417 794.86 614.893 795.042L600.021 800.953C598.93 801.313 597.733 801.372 596.6 801.122C592.789 800.121 588.906 799.331 584.975 798.757C584.451 798.67 583.967 798.456 583.58 798.142C583.194 797.828 582.921 797.426 582.794 796.984L580.91 788.541C580.8 788.114 580.526 787.73 580.13 787.451C579.735 787.172 579.242 787.013 578.729 787H556.867C556.355 787.017 555.863 787.177 555.469 787.456C555.075 787.734 554.799 788.116 554.685 788.541L552.801 796.984C552.679 797.425 552.411 797.826 552.028 798.14C551.646 798.454 551.166 798.669 550.645 798.757C546.713 799.329 542.83 800.118 539.02 801.122C537.879 801.373 536.674 801.314 535.574 800.953L520.702 795.042C520.16 794.855 519.575 794.774 518.991 794.807C518.407 794.84 517.839 794.986 517.331 795.232ZM592.709 814.927C606.515 821.702 606.515 832.7 592.709 839.476C578.902 846.252 556.569 846.252 542.763 839.476C528.956 832.7 528.981 821.702 542.763 814.927C556.544 808.151 578.977 808.214 592.709 814.927Z" fill="#ACE4FF"/>
<path d="M1584.33 418.232L1569.46 425.494C1569.27 425.571 1569.11 425.693 1569 425.844C1568.89 425.995 1568.83 426.17 1568.83 426.349C1568.83 426.527 1568.89 426.702 1569 426.853C1569.11 427.004 1569.27 427.126 1569.46 427.203L1581.18 434.38C1581.38 434.492 1581.55 434.641 1581.67 434.816C1581.8 434.99 1581.87 435.187 1581.89 435.39C1581.92 435.593 1581.88 435.797 1581.8 435.988C1581.71 436.179 1581.58 436.351 1581.41 436.491C1579.77 437.983 1578.37 439.642 1577.22 441.431C1576.93 441.838 1576.55 442.184 1576.08 442.444C1575.62 442.704 1575.09 442.87 1574.54 442.929L1554.86 444.006C1554.36 444.037 1553.89 444.225 1553.55 444.534C1553.21 444.842 1553.01 445.248 1553 445.673V455.024C1553.01 455.449 1553.21 455.856 1553.55 456.164C1553.89 456.472 1554.36 456.661 1554.86 456.692L1574.54 457.747C1575.09 457.812 1575.62 457.983 1576.08 458.246C1576.55 458.509 1576.93 458.858 1577.22 459.267C1578.37 461.052 1579.78 462.711 1581.41 464.207C1581.58 464.347 1581.71 464.519 1581.8 464.71C1581.88 464.9 1581.92 465.105 1581.89 465.308C1581.87 465.511 1581.8 465.707 1581.67 465.882C1581.55 466.057 1581.38 466.206 1581.18 466.318L1569.46 473.494C1569.27 473.572 1569.11 473.694 1569 473.845C1568.89 473.996 1568.83 474.171 1568.83 474.349C1568.83 474.528 1568.89 474.703 1569 474.854C1569.11 475.005 1569.27 475.126 1569.46 475.204L1584.33 482.465C1584.83 482.684 1585.39 482.808 1585.95 482.83C1586.52 482.852 1587.08 482.771 1587.6 482.592L1602.48 476.682C1603.57 476.311 1604.78 476.252 1605.92 476.513C1609.73 477.519 1613.61 478.302 1617.55 478.856C1618.07 478.951 1618.55 479.17 1618.93 479.488C1619.31 479.805 1619.58 480.208 1619.7 480.65L1621.59 489.094C1621.7 489.519 1621.98 489.9 1622.37 490.179C1622.76 490.457 1623.26 490.618 1623.77 490.634H1645.51C1646.02 490.602 1646.5 490.437 1646.9 490.161C1647.29 489.886 1647.58 489.513 1647.71 489.094L1649.57 480.65C1649.7 480.208 1649.98 479.805 1650.36 479.488C1650.75 479.171 1651.23 478.952 1651.75 478.856C1655.68 478.299 1659.57 477.517 1663.38 476.513C1664.51 476.25 1665.71 476.309 1666.8 476.682L1681.67 482.592C1682.19 482.771 1682.76 482.852 1683.32 482.83C1683.89 482.808 1684.44 482.684 1684.94 482.465L1699.81 475.204C1700.01 475.133 1700.18 475.014 1700.3 474.862C1700.42 474.71 1700.48 474.532 1700.48 474.349C1700.48 474.167 1700.42 473.989 1700.3 473.837C1700.18 473.685 1700.01 473.566 1699.81 473.494L1688.11 466.318C1687.91 466.212 1687.73 466.065 1687.6 465.89C1687.47 465.715 1687.39 465.516 1687.37 465.311C1687.35 465.105 1687.39 464.897 1687.48 464.705C1687.57 464.513 1687.71 464.343 1687.89 464.207C1689.51 462.706 1690.92 461.048 1692.08 459.267C1692.36 458.859 1692.74 458.51 1693.2 458.246C1693.66 457.983 1694.18 457.812 1694.73 457.747L1714.44 456.692C1714.93 456.66 1715.4 456.471 1715.74 456.163C1716.08 455.854 1716.27 455.448 1716.27 455.024V445.673C1716.27 445.25 1716.08 444.844 1715.74 444.535C1715.4 444.226 1714.93 444.038 1714.44 444.006L1694.73 442.929C1694.18 442.873 1693.66 442.708 1693.2 442.448C1692.74 442.187 1692.36 441.839 1692.08 441.431C1691 439.634 1689.67 437.955 1688.11 436.428C1687.93 436.292 1687.79 436.121 1687.7 435.929C1687.61 435.737 1687.57 435.53 1687.59 435.324C1687.62 435.118 1687.69 434.919 1687.82 434.744C1687.95 434.569 1688.13 434.423 1688.34 434.317L1700.04 427.14C1700.23 427.069 1700.4 426.95 1700.52 426.798C1700.64 426.646 1700.7 426.467 1700.7 426.285C1700.7 426.103 1700.64 425.925 1700.52 425.773C1700.4 425.621 1700.23 425.502 1700.04 425.43L1685.17 418.169C1684.66 417.947 1684.11 417.82 1683.55 417.798C1682.98 417.776 1682.42 417.86 1681.89 418.042L1667.02 423.953C1665.93 424.313 1664.73 424.372 1663.6 424.122C1659.79 423.121 1655.91 422.331 1651.98 421.757C1651.45 421.67 1650.97 421.456 1650.58 421.142C1650.19 420.828 1649.92 420.426 1649.79 419.984L1647.91 411.541C1647.8 411.114 1647.53 410.73 1647.13 410.451C1646.74 410.172 1646.24 410.013 1645.73 410H1623.87C1623.35 410.017 1622.86 410.177 1622.47 410.456C1622.07 410.734 1621.8 411.116 1621.69 411.541L1619.8 419.984C1619.68 420.425 1619.41 420.826 1619.03 421.14C1618.65 421.454 1618.17 421.669 1617.64 421.757C1613.71 422.329 1609.83 423.118 1606.02 424.122C1604.88 424.373 1603.67 424.314 1602.57 423.953L1587.7 418.042C1587.16 417.855 1586.57 417.774 1585.99 417.807C1585.41 417.84 1584.84 417.986 1584.33 418.232ZM1659.71 437.927C1673.52 444.702 1673.52 455.7 1659.71 462.476C1645.9 469.252 1623.57 469.252 1609.76 462.476C1595.96 455.7 1595.98 444.702 1609.76 437.927C1623.54 431.151 1645.98 431.214 1659.71 437.927Z" fill="#ACE4FF"/>
<path d="M119.331 257.232L104.459 264.494C104.27 264.571 104.111 264.693 104 264.844C103.888 264.995 103.829 265.17 103.829 265.349C103.829 265.527 103.888 265.702 104 265.853C104.111 266.004 104.27 266.126 104.459 266.203L116.183 273.38C116.383 273.492 116.551 273.641 116.675 273.816C116.798 273.99 116.873 274.187 116.895 274.39C116.916 274.593 116.883 274.797 116.799 274.988C116.714 275.179 116.58 275.351 116.406 275.491C114.774 276.983 113.366 278.642 112.217 280.431C111.934 280.838 111.546 281.184 111.082 281.444C110.618 281.704 110.091 281.87 109.54 281.929L89.859 283.006C89.3612 283.037 88.8949 283.225 88.5512 283.534C88.2075 283.842 88.011 284.248 88 284.673V294.024C88.011 294.449 88.2075 294.856 88.5512 295.164C88.8949 295.472 89.3612 295.661 89.859 295.692L109.54 296.747C110.092 296.812 110.62 296.983 111.083 297.246C111.547 297.509 111.934 297.858 112.217 298.267C113.373 300.052 114.779 301.711 116.406 303.207C116.58 303.347 116.714 303.519 116.799 303.71C116.883 303.9 116.916 304.105 116.895 304.308C116.873 304.511 116.798 304.707 116.675 304.882C116.551 305.057 116.383 305.206 116.183 305.318L104.459 312.494C104.27 312.572 104.111 312.694 104 312.845C103.888 312.996 103.829 313.171 103.829 313.349C103.829 313.528 103.888 313.703 104 313.854C104.111 314.005 104.27 314.126 104.459 314.204L119.331 321.465C119.834 321.684 120.387 321.808 120.951 321.83C121.515 321.852 122.078 321.771 122.603 321.592L137.475 315.682C138.572 315.311 139.781 315.252 140.921 315.513C144.728 316.519 148.612 317.302 152.546 317.856C153.067 317.951 153.547 318.17 153.929 318.488C154.31 318.805 154.578 319.208 154.702 319.65L156.586 328.094C156.7 328.519 156.976 328.9 157.37 329.179C157.764 329.457 158.255 329.618 158.767 329.634H180.506C181.015 329.602 181.5 329.437 181.895 329.161C182.29 328.886 182.575 328.513 182.712 328.094L184.571 319.65C184.702 319.208 184.976 318.805 185.361 318.488C185.747 318.171 186.228 317.952 186.752 317.856C190.685 317.299 194.569 316.517 198.377 315.513C199.509 315.25 200.71 315.309 201.798 315.682L216.67 321.592C217.195 321.771 217.758 321.852 218.322 321.83C218.887 321.808 219.439 321.684 219.942 321.465L234.814 314.204C235.011 314.133 235.18 314.014 235.298 313.862C235.416 313.71 235.479 313.532 235.479 313.349C235.479 313.167 235.416 312.989 235.298 312.837C235.18 312.685 235.011 312.566 234.814 312.494L223.115 305.318C222.906 305.212 222.73 305.065 222.601 304.89C222.471 304.715 222.393 304.516 222.371 304.311C222.349 304.105 222.385 303.897 222.476 303.705C222.566 303.513 222.709 303.343 222.892 303.207C224.511 301.706 225.917 300.048 227.081 298.267C227.358 297.859 227.741 297.51 228.201 297.246C228.66 296.983 229.184 296.812 229.733 296.747L249.439 295.692C249.934 295.66 250.398 295.471 250.737 295.163C251.077 294.854 251.268 294.448 251.273 294.024V284.673C251.268 284.25 251.077 283.844 250.737 283.535C250.398 283.226 249.934 283.038 249.439 283.006L229.733 281.929C229.184 281.873 228.659 281.708 228.198 281.448C227.738 281.187 227.355 280.839 227.081 280.431C225.998 278.634 224.666 276.955 223.115 275.428C222.932 275.292 222.789 275.121 222.699 274.929C222.608 274.737 222.572 274.53 222.594 274.324C222.616 274.118 222.695 273.919 222.824 273.744C222.953 273.569 223.129 273.423 223.338 273.317L235.038 266.14C235.235 266.069 235.403 265.95 235.521 265.798C235.639 265.646 235.702 265.467 235.702 265.285C235.702 265.103 235.639 264.925 235.521 264.773C235.403 264.621 235.235 264.502 235.038 264.43L220.165 257.169C219.663 256.947 219.111 256.82 218.546 256.798C217.981 256.776 217.417 256.86 216.893 257.042L202.021 262.953C200.93 263.313 199.733 263.372 198.6 263.122C194.789 262.121 190.906 261.331 186.975 260.757C186.451 260.67 185.967 260.456 185.58 260.142C185.194 259.828 184.921 259.426 184.794 258.984L182.91 250.541C182.8 250.114 182.526 249.73 182.13 249.451C181.735 249.172 181.242 249.013 180.729 249H158.867C158.355 249.017 157.863 249.177 157.469 249.456C157.075 249.734 156.799 250.116 156.685 250.541L154.801 258.984C154.679 259.425 154.411 259.826 154.028 260.14C153.646 260.454 153.166 260.669 152.645 260.757C148.713 261.329 144.83 262.118 141.02 263.122C139.879 263.373 138.674 263.314 137.574 262.953L122.702 257.042C122.16 256.855 121.575 256.774 120.991 256.807C120.407 256.84 119.839 256.986 119.331 257.232ZM194.709 276.927C208.515 283.702 208.515 294.7 194.709 301.476C180.902 308.252 158.569 308.252 144.763 301.476C130.956 294.7 130.981 283.702 144.763 276.927C158.544 270.151 180.977 270.214 194.709 276.927Z" fill="#ACE4FF"/>
<path d="M853.331 30.2324L838.459 37.4936C838.27 37.5714 838.111 37.6929 838 37.8441C837.888 37.9953 837.829 38.1701 837.829 38.3486C837.829 38.527 837.888 38.7018 838 38.853C838.111 39.0042 838.27 39.1257 838.459 39.2035L850.183 46.3804C850.383 46.492 850.551 46.6407 850.675 46.8156C850.798 46.9904 850.873 47.1867 850.895 47.3898C850.916 47.5929 850.883 47.7974 850.799 47.9882C850.714 48.1789 850.58 48.3509 850.406 48.4912C848.774 49.9827 847.366 51.642 846.217 53.4306C845.934 53.8376 845.546 54.1842 845.082 54.4439C844.618 54.7037 844.091 54.8697 843.54 54.9293L823.859 56.0058C823.361 56.0372 822.895 56.2254 822.551 56.5337C822.207 56.842 822.011 57.2484 822 57.6734V67.0245C822.011 67.4495 822.207 67.8558 822.551 68.1641C822.895 68.4724 823.361 68.6607 823.859 68.692L843.54 69.7475C844.092 69.8124 844.62 69.9829 845.083 70.2461C845.547 70.5093 845.934 70.8583 846.217 71.2672C847.373 73.0524 848.779 74.7112 850.406 76.2067C850.58 76.347 850.714 76.5189 850.799 76.7096C850.883 76.9004 850.916 77.1049 850.895 77.308C850.873 77.5111 850.798 77.7074 850.675 77.8822C850.551 78.0571 850.383 78.2059 850.183 78.3175L838.459 85.4944C838.27 85.5722 838.111 85.6936 838 85.8448C837.888 85.996 837.829 86.1708 837.829 86.3493C837.829 86.5277 837.888 86.7025 838 86.8537C838.111 87.0049 838.27 87.1264 838.459 87.2042L853.331 94.4655C853.834 94.6838 854.387 94.8081 854.951 94.8299C855.515 94.8517 856.078 94.7707 856.603 94.5921L871.475 88.6817C872.572 88.3108 873.781 88.2516 874.921 88.5129C878.728 89.5189 882.612 90.3018 886.546 90.856C887.067 90.9512 887.547 91.1701 887.929 91.4876C888.31 91.8052 888.578 92.2082 888.702 92.6501L890.586 101.094C890.7 101.519 890.976 101.9 891.37 102.179C891.764 102.457 892.255 102.618 892.767 102.634H914.506C915.015 102.602 915.5 102.437 915.895 102.161C916.29 101.886 916.575 101.513 916.712 101.094L918.571 92.6501C918.702 92.2077 918.976 91.8053 919.361 91.4882C919.747 91.1712 920.228 90.9522 920.752 90.856C924.685 90.2994 928.569 89.5166 932.377 88.5129C933.509 88.2501 934.71 88.3094 935.798 88.6817L950.67 94.5921C951.195 94.7707 951.758 94.8517 952.322 94.8299C952.887 94.8081 953.439 94.6838 953.942 94.4655L968.814 87.2042C969.011 87.1329 969.18 87.0139 969.298 86.8619C969.416 86.7098 969.479 86.5316 969.479 86.3493C969.479 86.167 969.416 85.9887 969.298 85.8367C969.18 85.6847 969.011 85.5656 968.814 85.4944L957.115 78.3175C956.906 78.2117 956.73 78.0652 956.601 77.8902C956.471 77.7151 956.393 77.5165 956.371 77.3105C956.349 77.1046 956.385 76.8971 956.476 76.7053C956.566 76.5134 956.709 76.3425 956.892 76.2067C958.511 74.7057 959.917 73.0478 961.081 71.2672C961.358 70.8589 961.741 70.5098 962.201 70.2464C962.66 69.9831 963.184 69.8124 963.733 69.7475L983.439 68.692C983.934 68.6603 984.398 68.4713 984.737 68.1625C985.077 67.8537 985.268 67.4476 985.273 67.0245V57.6734C985.268 57.2503 985.077 56.8441 984.737 56.5353C984.398 56.2265 983.934 56.0375 983.439 56.0058L963.733 54.9293C963.184 54.8728 962.659 54.7079 962.198 54.4477C961.738 54.1875 961.355 53.8392 961.081 53.4306C959.998 51.6344 958.666 49.9549 957.115 48.4279C956.932 48.292 956.789 48.1211 956.699 47.9292C956.608 47.7373 956.572 47.5299 956.594 47.3239C956.616 47.118 956.695 46.9193 956.824 46.7443C956.953 46.5693 957.129 46.4229 957.338 46.317L969.038 39.1402C969.235 39.0689 969.403 38.9498 969.521 38.7978C969.639 38.6458 969.702 38.4675 969.702 38.2852C969.702 38.1029 969.639 37.9246 969.521 37.7726C969.403 37.6206 969.235 37.5016 969.038 37.4303L954.165 30.169C953.663 29.9467 953.111 29.8201 952.546 29.7983C951.981 29.7764 951.417 29.8597 950.893 30.0423L936.021 35.9527C934.93 36.3133 933.733 36.3724 932.6 36.1216C928.789 35.1208 924.906 34.3311 920.975 33.7574C920.451 33.6698 919.967 33.4564 919.58 33.1422C919.194 32.828 918.921 32.4263 918.794 31.9843L916.91 23.5409C916.8 23.1139 916.526 22.7305 916.13 22.4513C915.735 22.1722 915.242 22.0133 914.729 22H892.867C892.355 22.0169 891.863 22.177 891.469 22.4556C891.075 22.7341 890.799 23.1156 890.685 23.5409L888.801 31.9843C888.679 32.4246 888.411 32.8258 888.028 33.1401C887.646 33.4544 887.166 33.6686 886.645 33.7574C882.713 34.3287 878.83 35.1184 875.02 36.1216C873.879 36.3726 872.674 36.3136 871.574 35.9527L856.702 30.0423C856.16 29.8547 855.575 29.7744 854.991 29.8073C854.407 29.8402 853.839 29.9855 853.331 30.2324ZM928.709 49.9266C942.515 56.7024 942.515 67.6999 928.709 74.4758C914.902 81.2516 892.569 81.2516 878.763 74.4758C864.956 67.6999 864.981 56.7024 878.763 49.9266C892.544 43.1507 914.977 43.2141 928.709 49.9266Z" fill="#ACE4FF"/>
<path d="M410.445 877.947L403.901 882.57C403.69 882.693 403.522 882.862 403.415 883.06C403.308 883.259 403.266 883.478 403.294 883.695C403.322 883.911 403.419 884.118 403.574 884.291C403.729 884.465 403.936 884.6 404.174 884.68L412.428 888.184C412.687 888.302 412.917 888.462 413.103 888.655C413.289 888.848 413.429 889.071 413.515 889.31C413.6 889.549 413.629 889.8 413.6 890.049C413.571 890.298 413.484 890.539 413.345 890.76C413.018 891.375 412.745 892.01 412.527 892.659C412.335 893.197 411.983 893.684 411.505 894.072C411.028 894.46 410.441 894.737 409.801 894.876L398.647 896.501C398.372 896.536 398.109 896.622 397.876 896.751C397.643 896.881 397.446 897.051 397.298 897.252C397.149 897.452 397.054 897.677 397.017 897.912C396.98 898.147 397.003 898.386 397.085 898.612L398.845 903.446C399.062 903.969 399.465 904.42 399.998 904.738C400.532 905.056 401.168 905.224 401.819 905.219L413.544 904.818C414.963 904.863 416.313 905.351 417.336 906.19C418.207 906.952 419.143 907.657 420.137 908.301C420.372 908.44 420.569 908.621 420.714 908.832C420.859 909.042 420.948 909.277 420.976 909.52C421.005 909.762 420.971 910.007 420.877 910.238C420.784 910.468 420.633 910.679 420.434 910.855L415.774 915.077C415.584 915.224 415.442 915.412 415.364 915.621C415.285 915.83 415.273 916.052 415.329 916.267C415.384 916.481 415.505 916.679 415.679 916.841C415.853 917.002 416.074 917.122 416.32 917.188L426.582 920.67C427.241 920.857 427.94 920.923 428.632 920.865C429.323 920.807 429.993 920.626 430.597 920.333L437.513 916.428C438.761 915.804 440.217 915.551 441.652 915.71C443.849 916.048 446.067 916.281 448.295 916.407C448.978 916.483 449.631 916.689 450.206 917.011C450.781 917.333 451.264 917.761 451.617 918.264L454.095 922.486C454.428 922.973 454.911 923.373 455.493 923.641C456.074 923.909 456.732 924.035 457.392 924.006L470.232 922.866C470.526 922.839 470.81 922.764 471.069 922.643C471.328 922.523 471.557 922.359 471.741 922.163C471.926 921.967 472.063 921.741 472.144 921.499C472.225 921.258 472.249 921.005 472.215 920.755L471.62 916.533C471.567 915.996 471.73 915.46 472.081 915.011C472.432 914.563 472.951 914.229 473.553 914.063C475.37 913.577 477.157 913.013 478.907 912.375C480.259 911.929 481.739 911.848 483.146 912.143L493.061 914.802C493.73 914.944 494.428 914.959 495.104 914.846C495.781 914.733 496.421 914.495 496.977 914.148L503.521 909.504C503.741 909.386 503.917 909.217 504.029 909.018C504.142 908.818 504.186 908.596 504.158 908.376C504.13 908.156 504.029 907.948 503.869 907.774C503.708 907.6 503.493 907.468 503.248 907.393L495.019 903.868C494.755 903.755 494.521 903.597 494.33 903.405C494.14 903.213 493.996 902.99 493.908 902.75C493.82 902.51 493.79 902.257 493.819 902.007C493.848 901.757 493.936 901.514 494.077 901.293C494.412 900.685 494.693 900.057 494.92 899.414C495.109 898.872 495.459 898.382 495.937 897.989C496.415 897.597 497.004 897.317 497.647 897.177L508.801 895.551C509.076 895.516 509.339 895.431 509.571 895.301C509.804 895.172 510.001 895.001 510.15 894.801C510.298 894.6 510.394 894.375 510.43 894.14C510.467 893.906 510.444 893.667 510.362 893.44L508.578 888.607C508.359 888.089 507.959 887.641 507.431 887.324C506.903 887.007 506.274 886.836 505.628 886.833L493.904 887.235C492.483 887.194 491.132 886.705 490.111 885.863C489.232 885.1 488.287 884.395 487.285 883.752C487.052 883.611 486.858 883.428 486.715 883.217C486.572 883.006 486.485 882.771 486.459 882.528C486.433 882.285 486.469 882.041 486.565 881.811C486.661 881.581 486.813 881.372 487.013 881.197L491.673 876.976C491.863 876.827 492.004 876.638 492.081 876.428C492.157 876.217 492.167 875.994 492.109 875.779C492.051 875.565 491.928 875.367 491.751 875.206C491.574 875.046 491.35 874.928 491.103 874.865L480.841 871.361C480.179 871.177 479.48 871.115 478.788 871.176C478.096 871.238 477.428 871.423 476.825 871.72L469.934 875.625C468.683 876.24 467.227 876.485 465.795 876.321C463.589 876.005 461.383 875.773 459.152 875.625C458.467 875.556 457.81 875.353 457.233 875.03C456.657 874.708 456.177 874.276 455.831 873.767L453.352 869.546C453.021 869.051 452.535 868.645 451.948 868.373C451.362 868.101 450.697 867.973 450.03 868.005L437.215 869.145C436.62 869.198 436.075 869.45 435.698 869.846C435.322 870.242 435.145 870.749 435.208 871.255L435.803 875.477C435.855 876.014 435.693 876.551 435.342 876.999C434.991 877.448 434.472 877.782 433.869 877.947C432.057 878.417 430.278 878.973 428.54 879.614C427.182 880.07 425.691 880.151 424.276 879.847L414.362 877.187C413.684 877.057 412.98 877.058 412.302 877.189C411.625 877.321 410.99 877.579 410.445 877.947ZM467.753 886.264C478.883 890.042 481.634 897.557 473.925 903.024C466.216 908.491 450.947 909.842 439.818 906.063C428.689 902.285 425.937 894.749 433.646 889.282C441.355 883.815 456.649 882.464 467.753 886.264Z" fill="#ACE4FF"/>
<path d="M1448.45 780.947L1441.9 785.57C1441.69 785.693 1441.52 785.862 1441.41 786.06C1441.31 786.259 1441.27 786.478 1441.29 786.695C1441.32 786.911 1441.42 787.118 1441.57 787.291C1441.73 787.465 1441.94 787.6 1442.17 787.68L1450.43 791.184C1450.69 791.302 1450.92 791.462 1451.1 791.655C1451.29 791.848 1451.43 792.071 1451.51 792.31C1451.6 792.549 1451.63 792.8 1451.6 793.049C1451.57 793.298 1451.48 793.539 1451.35 793.76C1451.02 794.375 1450.74 795.01 1450.53 795.659C1450.33 796.197 1449.98 796.684 1449.51 797.072C1449.03 797.46 1448.44 797.737 1447.8 797.876L1436.65 799.501C1436.37 799.536 1436.11 799.622 1435.88 799.751C1435.64 799.881 1435.45 800.051 1435.3 800.252C1435.15 800.452 1435.05 800.677 1435.02 800.912C1434.98 801.147 1435 801.386 1435.08 801.612L1436.84 806.446C1437.06 806.969 1437.47 807.42 1438 807.738C1438.53 808.056 1439.17 808.224 1439.82 808.219L1451.54 807.818C1452.96 807.863 1454.31 808.351 1455.34 809.19C1456.21 809.952 1457.14 810.657 1458.14 811.301C1458.37 811.44 1458.57 811.621 1458.71 811.832C1458.86 812.042 1458.95 812.277 1458.98 812.52C1459 812.762 1458.97 813.007 1458.88 813.238C1458.78 813.468 1458.63 813.679 1458.43 813.855L1453.77 818.077C1453.58 818.224 1453.44 818.412 1453.36 818.621C1453.29 818.83 1453.27 819.052 1453.33 819.267C1453.38 819.481 1453.5 819.679 1453.68 819.841C1453.85 820.002 1454.07 820.122 1454.32 820.188L1464.58 823.67C1465.24 823.857 1465.94 823.923 1466.63 823.865C1467.32 823.807 1467.99 823.626 1468.6 823.333L1475.51 819.428C1476.76 818.804 1478.22 818.551 1479.65 818.71C1481.85 819.048 1484.07 819.281 1486.3 819.407C1486.98 819.483 1487.63 819.689 1488.21 820.011C1488.78 820.333 1489.26 820.761 1489.62 821.264L1492.1 825.486C1492.43 825.973 1492.91 826.373 1493.49 826.641C1494.07 826.909 1494.73 827.035 1495.39 827.006L1508.23 825.866C1508.53 825.839 1508.81 825.764 1509.07 825.643C1509.33 825.523 1509.56 825.359 1509.74 825.163C1509.93 824.967 1510.06 824.741 1510.14 824.499C1510.23 824.258 1510.25 824.005 1510.21 823.755L1509.62 819.533C1509.57 818.996 1509.73 818.46 1510.08 818.011C1510.43 817.563 1510.95 817.229 1511.55 817.063C1513.37 816.577 1515.16 816.013 1516.91 815.375C1518.26 814.929 1519.74 814.848 1521.15 815.143L1531.06 817.802C1531.73 817.944 1532.43 817.959 1533.1 817.846C1533.78 817.733 1534.42 817.495 1534.98 817.148L1541.52 812.504C1541.74 812.386 1541.92 812.217 1542.03 812.018C1542.14 811.818 1542.19 811.596 1542.16 811.376C1542.13 811.156 1542.03 810.948 1541.87 810.774C1541.71 810.6 1541.49 810.468 1541.25 810.393L1533.02 806.868C1532.76 806.755 1532.52 806.597 1532.33 806.405C1532.14 806.213 1532 805.99 1531.91 805.75C1531.82 805.51 1531.79 805.257 1531.82 805.007C1531.85 804.757 1531.94 804.514 1532.08 804.293C1532.41 803.685 1532.69 803.057 1532.92 802.414C1533.11 801.872 1533.46 801.382 1533.94 800.989C1534.41 800.597 1535 800.317 1535.65 800.177L1546.8 798.551C1547.08 798.516 1547.34 798.431 1547.57 798.301C1547.8 798.172 1548 798.001 1548.15 797.801C1548.3 797.6 1548.39 797.375 1548.43 797.14C1548.47 796.906 1548.44 796.667 1548.36 796.44L1546.58 791.607C1546.36 791.089 1545.96 790.641 1545.43 790.324C1544.9 790.007 1544.27 789.836 1543.63 789.833L1531.9 790.235C1530.48 790.194 1529.13 789.705 1528.11 788.863C1527.23 788.1 1526.29 787.395 1525.29 786.752C1525.05 786.611 1524.86 786.428 1524.72 786.217C1524.57 786.006 1524.49 785.771 1524.46 785.528C1524.43 785.285 1524.47 785.041 1524.56 784.811C1524.66 784.581 1524.81 784.372 1525.01 784.197L1529.67 779.976C1529.86 779.827 1530 779.638 1530.08 779.428C1530.16 779.217 1530.17 778.994 1530.11 778.779C1530.05 778.565 1529.93 778.367 1529.75 778.206C1529.57 778.046 1529.35 777.928 1529.1 777.865L1518.84 774.361C1518.18 774.177 1517.48 774.115 1516.79 774.176C1516.1 774.238 1515.43 774.423 1514.83 774.72L1507.93 778.625C1506.68 779.24 1505.23 779.485 1503.79 779.321C1501.59 779.005 1499.38 778.773 1497.15 778.625C1496.47 778.556 1495.81 778.353 1495.23 778.03C1494.66 777.708 1494.18 777.276 1493.83 776.767L1491.35 772.546C1491.02 772.051 1490.54 771.645 1489.95 771.373C1489.36 771.101 1488.7 770.973 1488.03 771.005L1475.22 772.145C1474.62 772.198 1474.07 772.45 1473.7 772.846C1473.32 773.242 1473.15 773.749 1473.21 774.255L1473.8 778.477C1473.86 779.014 1473.69 779.551 1473.34 779.999C1472.99 780.448 1472.47 780.782 1471.87 780.947C1470.06 781.417 1468.28 781.973 1466.54 782.614C1465.18 783.07 1463.69 783.151 1462.28 782.847L1452.36 780.187C1451.68 780.057 1450.98 780.058 1450.3 780.189C1449.62 780.321 1448.99 780.579 1448.45 780.947ZM1505.75 789.264C1516.88 793.042 1519.63 800.557 1511.93 806.024C1504.22 811.491 1488.95 812.842 1477.82 809.063C1466.69 805.285 1463.94 797.749 1471.65 792.282C1479.35 786.815 1494.65 785.464 1505.75 789.264Z" fill="#ACE4FF"/>
<path d="M1428.42 119.369C1422.52 121.48 1420.99 125.47 1422.84 129.333C1424.7 133.195 1429.19 135.243 1435.06 133.174C1440.94 131.106 1442.38 127.032 1440.49 123.169C1438.61 119.306 1434.15 117.343 1428.42 119.369ZM1406.11 69.0468C1391.44 74.1761 1384.47 84.3082 1386.08 95.1369L1404.18 93.1527C1404.18 88.6144 1405.91 85.4481 1412.31 83.2106C1418.7 80.9731 1422.7 83.2106 1424.16 86.2713C1425.87 89.7964 1423.41 93.7226 1410.45 102.884L1417.64 117.829L1434.99 111.728L1430.9 103.475C1438.34 97.7121 1445.77 89.0576 1440.47 78.1445C1435.63 68.0336 1422.27 63.3475 1405.96 69.0468H1406.11Z" fill="#ACE4FF"/>
<path d="M776.841 58.7825C782.74 60.8934 784.277 64.8829 782.418 68.7457C780.559 72.6086 776.072 74.6561 770.198 72.5875C764.323 70.5188 762.886 66.4449 764.769 62.5821C766.653 58.7192 771.115 56.7561 776.841 58.7825ZM799.149 8.45986C813.823 13.5892 820.788 23.7213 819.177 34.55L801.083 32.5658C801.083 28.0274 799.347 24.8612 792.952 22.6237C786.557 20.3862 782.567 22.6237 781.104 25.6844C779.394 29.2095 781.848 33.1357 794.811 42.2968L787.623 57.2416L770.272 51.1412L774.362 42.8878C766.926 37.1252 759.49 28.4707 764.794 17.5576C769.628 7.44665 782.988 2.76057 799.298 8.45986H799.149Z" fill="#ACE4FF"/>
<path d="M213.564 202.783C207.665 204.893 206.128 208.883 207.987 212.746C209.846 216.609 214.333 218.656 220.207 216.587C226.082 214.519 227.519 210.445 225.636 206.582C223.752 202.719 219.29 200.756 213.564 202.783ZM191.256 152.46C176.582 157.589 169.617 167.721 171.228 178.55L189.322 176.566C189.322 172.027 191.057 168.861 197.453 166.624C203.848 164.386 207.838 166.624 209.301 169.684C211.011 173.21 208.557 177.136 195.594 186.297L202.782 201.242L220.133 195.141L216.043 186.888C223.479 181.125 230.915 172.471 225.611 161.558C220.777 151.447 207.417 146.761 191.107 152.46H191.256Z" fill="#ACE4FF"/>
<path d="M1641.56 774.626C1635.66 772.515 1634.13 768.525 1635.99 764.662C1637.85 760.8 1642.33 758.752 1648.21 760.821C1654.08 762.889 1655.52 766.963 1653.64 770.826C1651.75 774.689 1647.29 776.652 1641.56 774.626ZM1619.26 824.948C1604.58 819.819 1597.62 809.687 1599.23 798.858L1617.32 800.842C1617.32 805.381 1619.06 808.547 1625.45 810.785C1631.85 813.022 1635.84 810.785 1637.3 807.724C1639.01 804.199 1636.56 800.273 1623.59 791.111L1630.78 776.167L1648.13 782.267L1644.04 790.52C1651.48 796.283 1658.92 804.937 1653.61 815.851C1648.78 825.962 1635.42 830.648 1619.11 824.948H1619.26Z" fill="#ACE4FF"/>
</svg>
