<svg width="123" height="259" viewBox="0 0 123 259" fill="none" xmlns="http://www.w3.org/2000/svg">
<path d="M100.774 65.5309C110.009 62.9518 111.067 59.1626 111.148 58.7805C111.204 58.6098 111.204 58.4258 111.148 58.2551L109.849 53.6381C109.496 52.3962 109.849 49.8012 113.665 44.5154C113.688 44.4708 113.715 44.4282 113.745 44.3881V44.3881C117.061 39.5852 118.807 33.8849 118.747 28.0621C118.686 22.2392 116.822 16.576 113.406 11.8422C109.991 7.1083 105.191 3.53334 99.6582 1.60309C94.1253 -0.327159 88.1281 -0.519087 82.4815 1.05338C76.835 2.62585 71.813 5.88647 68.0979 10.3921C64.3828 14.8978 62.1548 20.43 61.7167 26.2369C61.2786 32.0438 62.6517 37.8439 65.6494 42.8488C68.647 47.8538 73.1238 51.821 78.4714 54.2112H78.5676C84.7405 56.8063 86.424 58.8124 86.7767 60.0701L88.0915 64.6712C88.1407 64.8459 88.2345 65.005 88.364 65.1329C88.6686 65.5309 91.5226 68.126 100.774 65.5309ZM108.903 58.4939C108.55 59.1626 106.851 61.5348 100.165 63.4135C93.4787 65.2921 90.8171 64.1618 90.1277 63.7637L88.9252 59.5129C88.1876 56.9496 85.2214 54.7366 79.5776 52.2848H79.4814C74.538 50.0986 70.3931 46.4528 67.611 41.8437C64.8289 37.2346 63.5448 31.8862 63.9335 26.5265C64.3222 21.1668 66.3648 16.0563 69.7832 11.8906C73.2017 7.72486 77.8299 4.70638 83.0378 3.24604C88.2457 1.78569 93.7803 1.95442 98.8882 3.72928C103.996 5.50413 108.429 8.79886 111.584 13.165C114.738 17.5311 116.461 22.7564 116.518 28.1297C116.575 33.503 114.963 38.7631 111.901 43.194C108.31 48.225 107.091 51.6957 107.733 54.2431L108.903 58.4939Z" fill="#E0E0E0"/>
<path d="M104.943 80.194C114.563 77.4875 115.653 73.6028 115.749 73.173C115.789 72.9947 115.789 72.8099 115.749 72.6316L113.12 63.3976C113.055 63.1621 112.914 62.9545 112.718 62.8065C112.522 62.6584 112.283 62.5783 112.038 62.5783C111.792 62.5783 111.553 62.6584 111.357 62.8065C111.162 62.9545 111.02 63.1621 110.955 63.3976V63.3976C110.955 63.3976 109.961 66.4384 101.72 68.7469C93.4788 71.0555 91.0096 68.9858 90.9936 68.9539C90.8123 68.7925 90.5837 68.6929 90.3413 68.67C90.0989 68.6471 89.8554 68.702 89.6467 68.8266C89.4392 68.9477 89.2779 69.1337 89.188 69.3555C89.0981 69.5772 89.0846 69.8223 89.1497 70.0525L91.7792 79.2866C91.829 79.4575 91.9167 79.6153 92.0357 79.7483C92.3404 80.1463 95.3226 82.8847 104.943 80.194ZM113.489 72.8864C113.136 73.571 111.388 76.0705 104.333 78.0607C97.2787 80.0508 94.5049 78.8248 93.7994 78.4109L91.8754 71.8038C93.8155 72.2814 97.0863 72.4088 102.265 70.944C107.444 69.4793 110.154 67.7599 111.565 66.2792L113.489 72.8864Z" fill="#E0E0E0"/>
<path d="M102.425 57.7616L102.698 57.6342C102.834 57.5595 102.952 57.4572 103.045 57.3342C103.139 57.2111 103.205 57.0699 103.24 56.9197C103.274 56.7696 103.277 56.6139 103.247 56.4627C103.217 56.3115 103.156 56.1682 103.067 56.0421C103.067 56.0421 101.319 52.9694 99.6517 42.5412C99.182 39.9111 99.1441 37.2229 99.5394 34.5808C103.58 34.5808 106.338 32.4474 107.107 30.4255C107.274 30.0341 107.36 29.6136 107.36 29.1887C107.361 28.7638 107.276 28.3431 107.11 27.9514C106.944 27.5597 106.701 27.2049 106.395 26.908C106.089 26.611 105.726 26.3779 105.328 26.2224C104.608 25.9289 103.82 25.8405 103.052 25.967C102.285 26.0936 101.568 26.4301 100.982 26.9388C99.3991 28.331 98.2805 30.1692 97.7757 32.2086C97.1658 32.0879 96.5656 31.923 95.98 31.7151C94.513 31.2311 93.1288 30.5278 91.8754 29.6294C92.7412 26.7955 92.7573 24.073 91.6991 22.4491C91.2855 21.932 90.727 21.5481 90.0939 21.3458C89.4609 21.1435 88.7817 21.1319 88.142 21.3124C87.5023 21.4929 86.9308 21.8575 86.4995 22.3601C86.0682 22.8628 85.7965 23.4809 85.7186 24.1367C85.7186 26.0632 87.1135 28.3876 89.3422 30.3459C88.7866 31.7629 88.0191 33.0886 87.0654 34.2783C86.6748 34.7577 86.2458 35.2049 85.7827 35.6157C84.2859 34.1446 82.3731 33.1616 80.2992 32.7977C79.5362 32.6627 78.7504 32.7399 78.0288 33.0209C77.3072 33.3019 76.6779 33.7757 76.2107 34.3898C75.9513 34.7301 75.7634 35.1188 75.6583 35.5326C75.5531 35.9465 75.5329 36.3771 75.5987 36.7989C75.6645 37.2207 75.815 37.6251 76.0414 37.988C76.2677 38.3509 76.5652 38.6648 76.9162 38.9113C78.2378 39.6921 79.7611 40.0706 81.2973 39.9998C82.8335 39.9291 84.3151 39.4122 85.5582 38.5133C87.3006 40.5759 88.6974 42.9036 89.6949 45.407C93.7674 55.1505 93.8957 58.6531 93.8957 58.685C93.8978 58.8292 93.9284 58.9717 93.986 59.1042C94.0435 59.2367 94.1268 59.3566 94.231 59.4571C94.3352 59.5577 94.4584 59.6368 94.5934 59.6901C94.7284 59.7434 94.8727 59.7697 95.018 59.7676C95.1625 59.7676 95.3056 59.7391 95.439 59.6837C95.5723 59.6283 95.6932 59.5471 95.7946 59.4449C95.8961 59.3427 95.9761 59.2214 96.0299 59.0882C96.0837 58.9551 96.1104 58.8126 96.1083 58.6691C96.1083 58.5098 96.1083 54.864 91.7472 44.5632C90.6862 41.8818 89.1974 39.3874 87.338 37.1759C87.8658 36.6842 88.3536 36.1518 88.797 35.5838C89.7608 34.3893 90.5689 33.0788 91.202 31.6832C92.4827 32.542 93.8671 33.2374 95.3226 33.7529C95.991 33.9916 96.6772 34.1779 97.3749 34.3102C96.9578 37.1592 97.0011 40.056 97.5032 42.8915C99.2669 53.9087 101.143 57.061 101.207 57.2203C101.327 57.4264 101.509 57.5897 101.728 57.6869C101.947 57.7841 102.191 57.8102 102.425 57.7616V57.7616ZM103.307 28.2125C103.679 28.0701 104.09 28.0701 104.462 28.2125C104.604 28.2512 104.735 28.3218 104.845 28.4188C104.955 28.5158 105.042 28.6366 105.097 28.772C105.153 28.9073 105.177 29.0536 105.167 29.1995C105.157 29.3454 105.113 29.487 105.039 29.6135C104.532 30.4631 103.805 31.1624 102.934 31.6384C102.063 32.1144 101.079 32.3498 100.085 32.32C100.472 30.9023 101.262 29.6255 102.361 28.6423C102.646 28.4394 102.967 28.2934 103.307 28.2125ZM83.8587 36.8734C83.0278 37.4156 82.0652 37.7254 81.072 37.7702C80.0788 37.815 79.0919 37.5932 78.2149 37.1281C78.0843 37.0617 77.971 36.9659 77.8841 36.8485C77.7971 36.731 77.7389 36.5951 77.714 36.4515C77.6892 36.3078 77.6983 36.1604 77.7407 36.0209C77.7831 35.8813 77.8576 35.7535 77.9583 35.6475C78.1921 35.3503 78.5061 35.1251 78.8638 34.9983C79.2215 34.8715 79.608 34.8481 79.9785 34.9311C81.435 35.1889 82.7838 35.864 83.8587 36.8734V36.8734ZM88.7489 23.277C89.4704 23.07 89.7269 23.277 89.9033 23.5954C90.4818 24.9882 90.5443 26.5395 90.0797 27.9737C88.9314 26.992 88.1703 25.6383 87.9312 24.1527C87.9472 23.8979 88.0274 23.5477 88.7649 23.3407L88.7489 23.277Z" fill="#E0E0E0"/>
<path d="M22.6428 170.433C24.7519 163.923 28.4819 158.046 33.4873 153.348C38.4927 148.65 44.6115 145.282 51.2765 143.558C57.9415 141.833 64.9372 141.807 71.615 143.482C78.2929 145.157 84.437 148.478 89.4778 153.139C94.5186 157.8 98.2931 163.648 100.451 170.143C102.61 176.638 103.082 183.568 101.825 190.293C100.567 197.017 97.6205 203.317 93.2579 208.61C88.8953 213.902 83.2579 218.015 76.8681 220.568L76.6757 220.664C67.9214 223.975 65.4522 226.777 64.8269 228.544L62.7105 235.072C62.6382 235.321 62.4997 235.547 62.3097 235.725C61.8607 236.155 57.6118 239.785 44.5125 235.597C31.4131 231.41 30.0823 226.045 30.0022 225.392C29.9397 225.141 29.9397 224.879 30.0022 224.628L32.1186 218.1C32.6958 216.349 32.2949 212.608 27.0199 204.647C26.9842 204.611 26.9569 204.568 26.9398 204.52C23.7496 199.499 21.7109 193.843 20.9683 187.952C20.2257 182.061 20.7974 176.08 22.6428 170.433ZM37.2493 185.065C38.2434 187.978 42.0593 191.21 47.8635 191.433C48.2992 195.264 48.1098 199.14 47.3023 202.912C44.3522 217.75 41.7227 222.017 41.6906 222.017C41.496 222.369 41.4423 222.78 41.5404 223.17C41.6385 223.559 41.881 223.897 42.2195 224.117C42.558 224.336 42.9674 224.42 43.3658 224.353C43.7642 224.285 44.1222 224.071 44.3682 223.752C44.4804 223.561 47.3183 219.151 50.4288 203.485C51.2939 199.447 51.505 195.298 51.0542 191.194C52.0589 191.041 53.0505 190.812 54.0204 190.51C56.1297 189.85 58.145 188.924 60.0169 187.755C60.8328 189.79 61.9106 191.711 63.2236 193.471C63.8333 194.278 64.5033 195.039 65.2278 195.748C62.4543 198.825 60.187 202.317 58.5097 206.096C51.8398 220.616 51.5512 225.838 51.5351 226.061C51.5179 226.41 51.6169 226.755 51.8169 227.043C52.0168 227.331 52.3066 227.545 52.6415 227.653C52.7795 227.675 52.9203 227.675 53.0583 227.653C53.4701 227.653 53.8662 227.497 54.1647 227.215C54.4631 226.933 54.6411 226.549 54.6617 226.14C54.6617 226.14 55.0304 221.109 61.3476 207.354C62.9045 203.822 65.027 200.564 67.6328 197.706C72.4429 200.89 77.4292 200.508 79.9786 198.725C80.4911 198.396 80.9314 197.967 81.2728 197.465C81.6142 196.963 81.8496 196.397 81.965 195.802C82.0803 195.207 82.0732 194.595 81.944 194.003C81.8148 193.411 81.5662 192.851 81.2132 192.356C80.5903 191.439 79.7205 190.714 78.7028 190.264C77.6852 189.813 76.5606 189.656 75.4572 189.809C72.4583 190.22 69.6594 191.537 67.4404 193.582C66.7991 192.957 66.2043 192.287 65.6607 191.576C64.3442 189.832 63.291 187.907 62.5342 185.861C65.8371 183.17 68.0337 179.922 68.0497 177.152C68.0038 176.18 67.66 175.245 67.0644 174.473C66.4689 173.7 65.6499 173.127 64.7171 172.829C63.7843 172.531 62.7822 172.523 61.8448 172.806C60.9074 173.09 60.0795 173.65 59.4718 174.414C57.8684 176.674 57.7401 180.591 58.8304 184.683C57.0169 185.91 55.0279 186.86 52.9301 187.501C52.0759 187.769 51.2021 187.971 50.3166 188.106C49.7118 185.169 48.2182 182.486 46.0357 180.416C45.2283 179.654 44.2226 179.131 43.1319 178.906C42.0413 178.681 40.909 178.762 39.8628 179.142C39.2911 179.349 38.7677 179.669 38.3241 180.083C37.8805 180.497 37.5259 180.995 37.2817 181.549C37.0374 182.102 36.9087 182.699 36.9031 183.303C36.8975 183.908 37.0153 184.507 37.2493 185.065V185.065ZM41.1454 182.072C41.6611 181.898 42.2159 181.876 42.7443 182.005C43.2727 182.135 43.7527 182.412 44.1277 182.804C45.66 184.261 46.7301 186.132 47.2061 188.185C43.2459 187.819 40.7927 185.67 40.2475 184.03C40.1485 183.846 40.0936 183.643 40.0868 183.434C40.08 183.226 40.1217 183.02 40.2086 182.83C40.2955 182.641 40.4252 182.474 40.5877 182.342C40.7501 182.21 40.941 182.118 41.1454 182.072V182.072ZM63.881 175.799C64.9231 176.133 65.0033 176.643 65.0033 177.104C64.594 179.204 63.4599 181.095 61.7966 182.454C61.2036 180.383 61.3742 178.17 62.2776 176.213C62.47 175.831 62.8388 175.464 63.881 175.799ZM77.3331 193.073C77.8877 193.238 78.3652 193.593 78.6799 194.076C78.8196 194.231 78.9209 194.417 78.9755 194.618C79.0302 194.819 79.0368 195.03 78.9947 195.235C78.9527 195.439 78.8632 195.63 78.7333 195.794C78.6035 195.958 78.437 196.089 78.247 196.177C76.82 197.164 73.5812 197.515 70.2302 195.509C71.8106 194.123 73.7583 193.217 75.8419 192.898C76.3458 192.857 76.8528 192.916 77.3331 193.073V193.073Z" fill="#EBEBEB"/>
<path d="M37.7784 256.358C51.4069 260.705 55.816 256.947 56.281 256.502C56.466 256.319 56.6036 256.095 56.6818 255.849L60.9147 242.762C61.0226 242.426 61.015 242.063 60.8931 241.732C60.7712 241.401 60.542 241.119 60.2413 240.931C59.9383 240.751 59.584 240.675 59.2332 240.715C58.8824 240.756 58.5548 240.91 58.3012 241.154V241.154C58.3012 241.154 54.6777 243.988 42.9893 240.246C31.3008 236.505 30.0342 232.111 30.0342 232.063C29.9534 231.723 29.762 231.418 29.4896 231.197C29.2172 230.975 28.8789 230.849 28.527 230.837C28.1794 230.818 27.8349 230.912 27.5456 231.104C27.2563 231.297 27.038 231.577 26.9237 231.904L22.6908 244.991C22.6284 245.242 22.6284 245.504 22.6908 245.755C22.771 246.376 24.1499 251.996 37.7784 256.358Z" fill="#EBEBEB"/>
<path d="M75.8419 138.958C76.2438 139.084 76.6794 139.047 77.0545 138.856C77.4295 138.666 77.7139 138.336 77.8461 137.939L81.9186 125.346C82.0132 125.141 82.0631 124.919 82.0649 124.694C82.0668 124.469 82.0206 124.246 81.9295 124.041C81.8384 123.835 81.7043 123.65 81.5362 123.499C81.3681 123.349 81.1697 123.235 80.9541 123.166C80.7385 123.097 80.5106 123.074 80.2854 123.099C80.0603 123.123 79.843 123.195 79.6478 123.309C79.4526 123.423 79.284 123.577 79.1531 123.761C79.0222 123.945 78.9319 124.154 78.8883 124.374L74.8157 136.968C74.6891 137.367 74.7258 137.799 74.9179 138.172C75.1099 138.544 75.4418 138.827 75.8419 138.958Z" fill="#EBEBEB"/>
<path d="M50.5891 138.098C50.8553 138.178 51.138 138.189 51.4093 138.128C51.6807 138.067 51.9314 137.937 52.1368 137.75C52.3422 137.564 52.4953 137.328 52.5809 137.065C52.6666 136.802 52.6819 136.522 52.6254 136.251L49.8195 123.324C49.6905 122.957 49.4309 122.65 49.0897 122.46C48.7484 122.27 48.3489 122.21 47.9666 122.292C47.5842 122.375 47.2453 122.593 47.0137 122.906C46.7821 123.219 46.6737 123.605 46.709 123.992L49.5149 136.92C49.5743 137.193 49.7049 137.445 49.8934 137.652C50.0819 137.858 50.3218 138.012 50.5891 138.098V138.098Z" fill="#EBEBEB"/>
<path d="M28.2866 149.911C28.5594 150.004 28.8523 150.022 29.1345 149.963C29.4166 149.904 29.6776 149.771 29.8899 149.577C30.1991 149.294 30.3842 148.902 30.4051 148.485C30.4261 148.069 30.2814 147.66 30.0022 147.348L21.0554 137.525C20.9222 137.345 20.7525 137.196 20.5572 137.085C20.362 136.975 20.1455 136.907 19.922 136.885C19.6984 136.863 19.4727 136.888 19.2594 136.958C19.0462 137.028 18.8502 137.142 18.6842 137.292C18.5182 137.443 18.3858 137.626 18.2957 137.83C18.2056 138.035 18.1597 138.255 18.1611 138.479C18.1624 138.702 18.2109 138.922 18.3035 139.125C18.3961 139.328 18.5307 139.51 18.6985 139.658L27.6452 149.466C27.8186 149.665 28.039 149.818 28.2866 149.911V149.911Z" fill="#EBEBEB"/>
<path d="M2.21604 167.09L14.9146 171.15C15.1213 171.246 15.3462 171.297 15.5744 171.3C15.8026 171.303 16.0287 171.257 16.2377 171.167C16.4468 171.076 16.6339 170.942 16.7865 170.773C16.9392 170.605 17.0539 170.406 17.1229 170.19C17.192 169.974 17.2138 169.746 17.1869 169.521C17.1601 169.296 17.0852 169.079 16.9672 168.885C16.8492 168.691 16.6909 168.524 16.5028 168.396C16.3148 168.268 16.1013 168.181 15.8766 168.141L3.19411 164.081C2.98825 163.987 2.76468 163.938 2.53815 163.936C2.31162 163.934 2.08729 163.98 1.87989 164.07C1.67249 164.161 1.48673 164.294 1.3349 164.461C1.18307 164.628 1.06858 164.825 0.998995 165.039C0.929414 165.253 0.906335 165.479 0.931227 165.703C0.956118 165.926 1.02845 166.142 1.14344 166.336C1.25843 166.53 1.41346 166.697 1.59834 166.827C1.78323 166.957 1.99374 167.047 2.21604 167.09Z" fill="#EBEBEB"/>
<path d="M1.01358 198.995C1.28018 199.076 1.56471 199.076 1.83131 198.995L14.9147 196.257C15.3255 196.166 15.6836 195.917 15.9116 195.566C16.1396 195.214 16.2192 194.788 16.1332 194.378C16.041 193.97 15.7909 193.615 15.4369 193.388C15.0829 193.162 14.6534 193.083 14.2412 193.168L1.20603 195.955C0.873586 196.039 0.57717 196.227 0.360412 196.491C0.143654 196.755 0.0179527 197.082 0.00180135 197.422C-0.01435 197.762 0.0798908 198.099 0.270674 198.382C0.461457 198.665 0.738712 198.88 1.06168 198.995H1.01358Z" fill="#EBEBEB"/>
<path d="M96.8298 152.873C97.1026 152.965 97.3955 152.983 97.6777 152.924C97.9599 152.865 98.2209 152.732 98.4331 152.538L108.31 143.655C108.619 143.372 108.804 142.98 108.825 142.563C108.846 142.146 108.701 141.738 108.422 141.426C108.137 141.114 107.739 140.927 107.315 140.906C106.891 140.885 106.476 141.032 106.161 141.314L96.2847 150.198C95.9707 150.481 95.7825 150.877 95.7615 151.297C95.7405 151.718 95.8882 152.13 96.1724 152.443C96.3522 152.638 96.5781 152.786 96.8298 152.873V152.873Z" fill="#EBEBEB"/>
<path d="M108.021 175.385C108.294 175.458 108.582 175.458 108.855 175.385L121.874 172.599C122.243 172.471 122.553 172.213 122.744 171.874C122.935 171.535 122.995 171.138 122.913 170.759C122.83 170.379 122.61 170.042 122.295 169.812C121.979 169.582 121.59 169.475 121.201 169.51L108.182 172.296C107.771 172.388 107.413 172.636 107.185 172.987C106.957 173.339 106.877 173.765 106.963 174.175C107.016 174.451 107.142 174.709 107.328 174.922C107.513 175.134 107.753 175.294 108.021 175.385Z" fill="#EBEBEB"/>
<path d="M106.402 200.396L119.132 204.44C119.517 204.515 119.917 204.448 120.255 204.25C120.593 204.052 120.846 203.738 120.967 203.367C121.088 202.996 121.067 202.594 120.909 202.238C120.751 201.881 120.467 201.594 120.11 201.431L107.428 197.371C107.033 197.274 106.616 197.329 106.261 197.526C105.906 197.722 105.639 198.045 105.514 198.43C105.39 198.814 105.418 199.231 105.591 199.596C105.765 199.962 106.072 200.248 106.45 200.396H106.402Z" fill="#EBEBEB"/>
<path d="M101.335 231.108C101.608 231.2 101.901 231.218 102.183 231.159C102.465 231.1 102.726 230.967 102.939 230.773C103.248 230.491 103.433 230.099 103.454 229.682C103.475 229.265 103.33 228.856 103.051 228.545L94.1042 218.737C93.8102 218.472 93.4275 218.324 93.0303 218.323C92.633 218.322 92.2495 218.468 91.9541 218.731C91.6586 218.995 91.4722 219.358 91.431 219.75C91.3899 220.143 91.4968 220.536 91.7312 220.855L100.678 230.662C100.856 230.863 101.082 231.016 101.335 231.108V231.108Z" fill="#EBEBEB"/>
<path d="M13.3113 90.0331C17.1273 91.6252 18.1214 94.6342 16.9189 97.5477C15.7164 100.461 12.8143 102.006 9.01437 100.445C5.21443 98.8851 4.28448 95.8124 5.50303 92.8989C6.72157 89.9853 9.6076 88.5047 13.3113 90.0331ZM27.7415 52.0778C37.2333 55.9466 41.7387 63.5886 40.6965 71.756L28.9921 70.2594C28.9921 66.8364 27.8698 64.4483 23.7331 62.7607C19.5965 61.0731 17.0151 62.7607 16.0691 65.0692C14.9628 67.728 16.5501 70.6893 24.9356 77.5989L20.2859 88.8709L9.06247 84.2698L11.708 78.0447C6.89794 73.6983 2.08791 67.1708 5.51908 58.9397C8.64561 51.3136 17.2876 47.7792 27.8377 52.0778H27.7415Z" fill="#EBEBEB"/>
</svg>
