<svg width="174" height="93" viewBox="0 0 174 93" fill="none" xmlns="http://www.w3.org/2000/svg">
<path d="M153.734 6.41925L163.354 11.896C163.476 11.9546 163.579 12.0462 163.651 12.1603C163.723 12.2743 163.761 12.4062 163.761 12.5408C163.761 12.6754 163.723 12.8073 163.651 12.9213C163.579 13.0353 163.476 13.1269 163.354 13.1856L155.77 18.5987C155.64 18.6829 155.532 18.7951 155.452 18.9269C155.372 19.0588 155.324 19.2069 155.31 19.36C155.296 19.5132 155.317 19.6675 155.372 19.8114C155.426 19.9552 155.513 20.085 155.626 20.1908C156.682 21.3157 157.592 22.5672 158.335 23.9162C158.518 24.2232 158.769 24.4846 159.069 24.6806C159.369 24.8765 159.711 25.0017 160.067 25.0466L172.798 25.8586C173.12 25.8823 173.421 26.0242 173.643 26.2568C173.866 26.4893 173.993 26.7958 174 27.1163V34.1693C173.993 34.4898 173.866 34.7963 173.643 35.0288C173.421 35.2614 173.12 35.4034 172.798 35.427L160.067 36.2231C159.71 36.2721 159.369 36.4006 159.069 36.5991C158.769 36.7976 158.518 37.0609 158.335 37.3693C157.588 38.7158 156.678 39.9669 155.626 41.0948C155.513 41.2007 155.426 41.3303 155.372 41.4742C155.317 41.6181 155.296 41.7724 155.31 41.9255C155.324 42.0787 155.372 42.2268 155.452 42.3586C155.532 42.4905 155.64 42.6027 155.77 42.6869L163.354 48.1C163.476 48.1587 163.579 48.2503 163.651 48.3643C163.723 48.4784 163.761 48.6102 163.761 48.7448C163.761 48.8794 163.723 49.0112 163.651 49.1253C163.579 49.2393 163.476 49.3309 163.354 49.3896L153.734 54.8664C153.408 55.031 153.051 55.1247 152.686 55.1412C152.321 55.1577 151.957 55.0965 151.617 54.9619L141.997 50.504C141.287 50.2242 140.506 50.1796 139.768 50.3767C137.305 51.1355 134.793 51.7259 132.249 52.1439C131.911 52.2157 131.601 52.3809 131.354 52.6204C131.108 52.8598 130.934 53.1638 130.854 53.4971L129.635 59.8655C129.562 60.1863 129.383 60.474 129.128 60.6841C128.873 60.8942 128.556 61.015 128.224 61.0277H114.163C113.834 61.0036 113.52 60.879 113.264 60.671C113.009 60.4629 112.824 60.1816 112.736 59.8655L111.533 53.4971C111.449 53.1634 111.272 52.8599 111.022 52.6208C110.773 52.3817 110.461 52.2165 110.123 52.1439C107.579 51.7241 105.066 51.1337 102.603 50.3767C101.871 50.1785 101.094 50.2232 100.39 50.504L90.7701 54.9619C90.4308 55.0965 90.0665 55.1577 89.7015 55.1412C89.3365 55.1247 88.9792 55.031 88.6537 54.8664L79.0335 49.3896C78.9061 49.3359 78.7974 49.2461 78.721 49.1314C78.6446 49.0167 78.6038 48.8823 78.6038 48.7448C78.6038 48.6073 78.6446 48.4729 78.721 48.3582C78.7974 48.2435 78.9061 48.1537 79.0335 48.1L86.6014 42.6869C86.7363 42.6071 86.8503 42.4966 86.9339 42.3646C87.0176 42.2326 87.0685 42.0828 87.0826 41.9274C87.0967 41.7721 87.0735 41.6156 87.0149 41.4709C86.9563 41.3262 86.8641 41.1973 86.7457 41.0948C85.6986 39.9627 84.7891 38.7123 84.036 37.3693C83.8566 37.0613 83.6089 36.7981 83.3116 36.5994C83.0143 36.4008 82.6753 36.2721 82.3204 36.2231L69.5738 35.427C69.2533 35.4031 68.9535 35.2606 68.7338 35.0276C68.5141 34.7947 68.3904 34.4884 68.3873 34.1693V27.1163C68.3904 26.7972 68.5141 26.4908 68.7338 26.2579C68.9535 26.025 69.2533 25.8825 69.5738 25.8586L82.3204 25.0466C82.6753 25.004 83.0153 24.8796 83.3132 24.6834C83.6111 24.4871 83.8586 24.2244 84.036 23.9162C84.7366 22.5615 85.5979 21.2947 86.6014 20.143C86.7198 20.0405 86.812 19.9116 86.8706 19.7669C86.9292 19.6222 86.9524 19.4657 86.9383 19.3104C86.9242 19.155 86.8733 19.0052 86.7896 18.8732C86.706 18.7412 86.592 18.6308 86.4571 18.5509L78.8893 13.1378C78.7618 13.0841 78.6531 12.9943 78.5767 12.8796C78.5003 12.765 78.4595 12.6305 78.4595 12.493C78.4595 12.3555 78.5003 12.2211 78.5767 12.1064C78.6531 11.9917 78.7618 11.902 78.8893 11.8482L88.5094 6.37149C88.8339 6.20379 89.1914 6.10832 89.557 6.09183C89.9225 6.07533 90.2872 6.13815 90.6258 6.27592L100.246 10.7338C100.952 11.0057 101.726 11.0503 102.459 10.8611C104.924 10.1063 107.436 9.51067 109.978 9.078C110.317 9.01193 110.63 8.85091 110.88 8.61395C111.13 8.37699 111.307 8.07399 111.389 7.74066L112.608 1.37232C112.679 1.05025 112.856 0.761018 113.112 0.55048C113.368 0.339943 113.687 0.22013 114.019 0.210083L128.16 0.210083C128.491 0.222827 128.809 0.343591 129.064 0.553687C129.319 0.763784 129.497 1.05152 129.571 1.37232L130.79 7.74066C130.869 8.07275 131.043 8.37529 131.29 8.61235C131.537 8.84941 131.848 9.01102 132.185 9.078C134.728 9.50886 137.24 10.1045 139.704 10.8611C140.442 11.0505 141.222 11.0059 141.933 10.7338L151.553 6.27592C151.904 6.1344 152.282 6.07381 152.66 6.09863C153.038 6.12345 153.405 6.23308 153.734 6.41925ZM104.976 21.2734C96.0451 26.384 96.0451 34.6787 104.976 39.7893C113.906 44.8999 128.353 44.8999 137.283 39.7893C146.214 34.6787 146.198 26.384 137.283 21.2734C128.369 16.1628 113.858 16.2105 104.976 21.2734Z" fill="#EBEBEB"/>
<path d="M65.5333 58.2575L69.7662 61.7442C69.903 61.837 70.0119 61.965 70.0811 62.1144C70.1503 62.2639 70.1773 62.4292 70.1592 62.5928C70.1411 62.7563 70.0785 62.9119 69.9782 63.0428C69.8779 63.1738 69.7437 63.2752 69.5898 63.3363L64.2507 65.9791C64.083 66.0677 63.9347 66.1884 63.8141 66.334C63.6935 66.4797 63.6031 66.6476 63.548 66.828C63.4929 67.0085 63.4742 67.1979 63.493 67.3856C63.5117 67.5732 63.5676 67.7553 63.6574 67.9214C63.8689 68.3856 64.0458 68.8645 64.1865 69.3544C64.3111 69.76 64.5388 70.1269 64.8477 70.4197C65.1567 70.7125 65.5364 70.9214 65.9502 71.026L73.1653 72.2519C73.3432 72.2784 73.5132 72.3427 73.6638 72.4404C73.8144 72.5381 73.942 72.667 74.0379 72.8181C74.1337 72.9692 74.1957 73.1391 74.2194 73.3162C74.2431 73.4932 74.2281 73.6732 74.1754 73.844L73.037 77.4899C72.8967 77.8841 72.6358 78.225 72.2908 78.4647C71.9459 78.7045 71.5341 78.8312 71.113 78.8272L63.5292 78.5247C62.6111 78.5585 61.7378 78.9269 61.076 79.5596C60.5128 80.1343 59.9072 80.6664 59.2642 81.1517C59.1123 81.2569 58.985 81.3935 58.8913 81.5522C58.7975 81.7109 58.7395 81.8879 58.7213 82.0709C58.703 82.254 58.7249 82.4388 58.7854 82.6127C58.8459 82.7865 58.9436 82.9453 59.0718 83.0781L62.0861 86.2623C62.2095 86.3734 62.3012 86.515 62.3518 86.6726C62.4024 86.8302 62.4102 86.9983 62.3744 87.1598C62.3386 87.3214 62.2605 87.4707 62.148 87.5927C62.0354 87.7147 61.8924 87.8049 61.7334 87.8544L55.0955 90.4813C54.6688 90.6221 54.217 90.6721 53.7695 90.6282C53.3221 90.5844 52.8889 90.4475 52.4981 90.2266L48.0248 87.2812C47.2175 86.8107 46.2755 86.6202 45.3472 86.7399C43.9259 86.9952 42.4913 87.1707 41.0502 87.2653C40.6088 87.3228 40.1863 87.4786 39.8142 87.7213C39.4421 87.9639 39.1302 88.287 38.9017 88.6663L37.2983 91.8505C37.0835 92.2179 36.7708 92.5193 36.3945 92.7216C36.0183 92.9238 35.5931 93.0191 35.1659 92.9968L26.8605 92.1371C26.6706 92.1173 26.4865 92.0602 26.3189 91.9693C26.1513 91.8783 26.0035 91.7552 25.8842 91.6071C25.7649 91.459 25.6764 91.2889 25.6238 91.1066C25.5712 90.9242 25.5556 90.7334 25.5778 90.545L25.9626 87.3608C25.9968 86.9557 25.8918 86.5511 25.6647 86.2128C25.4376 85.8745 25.1018 85.6226 24.712 85.4981C23.5369 85.1312 22.3811 84.7062 21.2488 84.2244C20.3746 83.8882 19.4174 83.827 18.5071 84.0493L12.0937 86.0553C11.6608 86.1622 11.2095 86.1734 10.7718 86.0882C10.334 86.0029 9.92048 85.8232 9.56036 85.5618L5.32752 82.0592C5.18554 81.9699 5.07165 81.8428 4.9988 81.6924C4.92595 81.5421 4.8971 81.3744 4.91547 81.2085C4.93385 81.0426 4.99873 80.8852 5.10276 80.7541C5.20678 80.6231 5.34575 80.5236 5.50389 80.4671L10.827 77.8083C10.9975 77.7227 11.149 77.604 11.2724 77.4591C11.3959 77.3143 11.4888 77.1463 11.5456 76.9652C11.6024 76.784 11.622 76.5934 11.6032 76.4046C11.5845 76.2157 11.5277 76.0326 11.4363 75.866C11.2199 75.4076 11.0377 74.9339 10.8911 74.449C10.769 74.0404 10.5423 73.6702 10.2332 73.3745C9.92413 73.0787 9.54318 72.8675 9.12746 72.7614L1.91237 71.5355C1.73449 71.509 1.56446 71.4447 1.41387 71.347C1.26329 71.2493 1.13571 71.1205 1.03982 70.9694C0.943935 70.8183 0.881999 70.6483 0.858264 70.4713C0.834529 70.2942 0.849551 70.1142 0.902278 69.9434L2.05669 66.2975C2.19815 65.9072 2.45709 65.5695 2.7984 65.3303C3.13972 65.091 3.5469 64.9618 3.96468 64.9602L11.5485 65.2627C12.4672 65.232 13.3416 64.8631 14.0017 64.2278C14.5705 63.6531 15.1814 63.1209 15.8295 62.6358C15.9803 62.5293 16.1062 62.3917 16.1985 62.2324C16.2907 62.0731 16.3471 61.8958 16.3639 61.7128C16.3807 61.5298 16.3573 61.3454 16.2955 61.1721C16.2337 60.9989 16.1349 60.841 16.0058 60.7093L12.9915 57.5251C12.8683 57.4129 12.7773 57.2702 12.7277 57.1117C12.6781 56.9531 12.6718 56.7843 12.7092 56.6225C12.7467 56.4607 12.8267 56.3117 12.9411 56.1906C13.0555 56.0694 13.2001 55.9806 13.3603 55.9331L19.9982 53.2902C20.426 53.1518 20.8784 53.1045 21.3259 53.1511C21.7734 53.1977 22.206 53.3373 22.5956 53.5609L27.0529 56.5062C27.8626 56.9701 28.8041 57.1548 29.7305 57.0316C31.1575 56.7928 32.5845 56.6177 34.0275 56.5062C34.4706 56.4546 34.8956 56.3011 35.2685 56.0579C35.6415 55.8147 35.9522 55.4885 36.176 55.1052L37.7793 51.921C37.9933 51.5481 38.3077 51.2418 38.6872 51.0365C39.0667 50.8312 39.4963 50.7351 39.9278 50.7588L48.2172 51.6185C48.602 51.6586 48.955 51.8489 49.1986 52.1475C49.4421 52.446 49.5563 52.8285 49.5159 53.2106L49.1311 56.3948C49.0969 56.7999 49.2019 57.2046 49.429 57.5428C49.6561 57.8811 49.9919 58.133 50.3817 58.2575C51.5537 58.6119 52.7046 59.0318 53.8289 59.5152C54.707 59.859 55.6716 59.9203 56.5866 59.6904L63.0001 57.6844C63.4386 57.5863 63.8938 57.5868 64.3321 57.686C64.7704 57.7852 65.1809 57.9805 65.5333 58.2575ZM28.4639 64.5303C21.2648 67.3802 19.4851 73.048 24.4715 77.1715C29.458 81.295 39.3346 82.3139 46.5336 79.4641C53.7327 76.6142 55.5124 70.9305 50.526 66.807C45.5396 62.6835 35.6469 61.6646 28.4639 64.5303Z" fill="#EBEBEB"/>
</svg>
